<svg xmlns="http://www.w3.org/2000/svg" width="114.667" height="141.751" viewBox="0 0 114.667 141.751">
  <g id="Group_63" data-name="Group 63" transform="translate(-839 -635)">
    <g id="Group_62" data-name="Group 62" transform="translate(839 635)">
      <g id="Group_59" data-name="Group 59" transform="translate(0 0)">
        <path id="Path_341" data-name="Path 341" d="M550.778,258.367A54.629,54.629,0,1,1,533.89,364.959c1.326-1,2.785-1.976,4.267-2.9A50.659,50.659,0,1,0,502.382,298l-.138.089.123-.036A50.748,50.748,0,0,0,509,341.635c-1.287.515-2.513,1.055-3.689,1.64a54.632,54.632,0,0,1,45.471-84.908Z" transform="translate(-490.741 -258.367)" fill="#70879c" fill-rule="evenodd"/>
        <path id="Path_342" data-name="Path 342" d="M815.281,741.773q-31.352-12.606-1.926-33.954-25.017,22.4,7.6,33.244-19.507,12.769-24.224,20.575Q797.607,755.229,815.281,741.773Z" transform="translate(-760.347 -661.5)" fill="#87aece" fill-rule="evenodd"/>
        <path id="Path_343" data-name="Path 343" d="M532.282,880.245c.513,0,.3-1.065.3-1.065-.7,10.764-4.922,18.655-14,22.067-8.884,3.337-10.682,2.831-19.332,9.556,5.274-6.7,11.23-9,17.061-11.049C524.345,896.933,528.933,893.232,532.282,880.245Z" transform="translate(-493.521 -815.202)" fill="#87aece" fill-rule="evenodd"/>
        <path id="Path_344" data-name="Path 344" d="M695.353,567.137q10.817,3.8,11,4.106L695.4,564.705q-8.474,8.533-21.437,9.476Q689.706,574.1,695.353,567.137Z" transform="translate(-650.233 -533.135)" fill="#87aece" fill-rule="evenodd"/>
        <path id="Path_345" data-name="Path 345" d="M838.552,664.115q2.764-6.119,2.288-7.457-6.314,10.178-14.6,12.568a38.04,38.04,0,0,0-12.846,9.642c9.172,2.764,16.663,6.181,21.411,10.882q4.522,4.943-4.459,10.719-32.676,18.636-33.618,24.4,4.057-5.6,18.365-12.821,12.267-6.352,19.562-10.9c14.868-10.431-6.665-19.935-15.873-22.906q3.024-5.518,7.968-7.095c4.462-1.455,6.3-2.6,8.554-2.09,10.061,2.261,2.848,20.888,27.074-7.131-6.935,5.859-11.173,9.631-13.615,11.5C844.766,676.5,838.55,664.121,838.552,664.115Z" transform="translate(-760.347 -615.612)" fill="#70879c" fill-rule="evenodd"/>
        <path id="Path_346" data-name="Path 346" d="M782.153,473.316a9.69,9.69,0,0,1,8.33-2.484.636.636,0,0,0,.635-.273,3.874,3.874,0,0,0,.365-3.375.649.649,0,0,1,.429-.78q1.629-.53,1.534-2.913c.16-5.633-6.217-9.6-10.9-7.021-3.37,1.855-3.494,7.04-3.776,10.768-.115,1.511-1.545,2.161-4.453,1.421-15.039-6.91-23.861-10.333-27.4-10.1-3.331.217-15.377,6.452-17.907,7.193,10.654-6.821,17.546-9.685,20.524-8.593,8.051,2.15,20.777,9.152,27.053,9.6,1,.071.89-.72.831-1.6-.628-9.393,7.637-12.875,13.2-9.549,3.858,2.305,6.115,8.032,2.294,11.659a.637.637,0,0,0-.174.664,8.463,8.463,0,0,1,.311,3.386.647.647,0,0,1-.6.576c-2.93.194-2.874,1.818-3.817,2.5C785.882,476.376,786.806,471.49,782.153,473.316Z" transform="translate(-699.606 -434.179)" fill="#70879c" fill-rule="evenodd"/>
        <path id="Path_347" data-name="Path 347" d="M1262.264,658.66a6.162,6.162,0,0,1,2.509,2.762q6.886-6.836,13.354-8.161a39.227,39.227,0,0,0-13.734,12.773A12.81,12.81,0,0,0,1262.264,658.66Z" transform="translate(-1177.903 -612.565)" fill="#87aece" fill-rule="evenodd"/>
        <path id="Path_348" data-name="Path 348" d="M1016.333,571.425a2.349,2.349,0,0,1,1.143,3.088,1.95,1.95,0,0,1-1.452.927c-.561.08-4.822,5.381-5.987,6.5t-.279-5.3c.113-.134.246-.273.39-.414a2.463,2.463,0,0,0,2.816-1.941,2.929,2.929,0,0,0-.081-1.769,1.8,1.8,0,0,1,.2-.537A2.35,2.35,0,0,1,1016.333,571.425Z" transform="translate(-951.419 -538.806)" fill="#969697" fill-rule="evenodd"/>
        <path id="Path_349" data-name="Path 349" d="M924.771,513.188a1.968,1.968,0,0,1-2.251,1.594,1.744,1.744,0,0,1-1.207-1.464c-1.88-2.956-6.883-5.573-8.237-5.6-1.495-.025-1.089-.05-1.038-3.218s1.774-.177,1.774-.177c4.9,5.047,7.595,6.207,8.866,6.407a1.544,1.544,0,0,1,.942-.053A1.969,1.969,0,0,1,924.771,513.188Z" transform="translate(-863.69 -477.834)" fill="#969697" fill-rule="evenodd"/>
        <path id="Path_350" data-name="Path 350" d="M874.019,795.649s-4.027,5.481-5.946,7.635,2.027,3.311,2.973,3.007a1.018,1.018,0,0,0,.272-.145,2.338,2.338,0,0,1-1.246-.86,2.047,2.047,0,0,1-.251-2.177,1.793,1.793,0,0,1,1.873-.795,1.386,1.386,0,0,1,1.32-.778,1.464,1.464,0,0,1,1.093,1.157c.413.066,2.134.251,2.074-1.266-.068-1.723-1.183-1.115-1.317-1.588S874.932,794.8,874.019,795.649Z" transform="translate(-823.87 -740.186)" fill="#969697" fill-rule="evenodd"/>
        <path id="Path_351" data-name="Path 351" d="M896.517,860.572c-.1-1.542-1-2.129-1.7-.66-2.819-.662-2.1,3.1.371,2.711.64-.1,15.353,9.9,17.448,12.112,0,0,.773,2.635,2.593.892a.633.633,0,0,1,.472-.18c.682.023,2.333-.066,1.614-1.555a1.354,1.354,0,0,0-2.348-.389C912.023,871.62,896.631,862.343,896.517,860.572Z" transform="translate(-846.691 -797.161)" fill="#969697" fill-rule="evenodd"/>
        <path id="Path_352" data-name="Path 352" d="M907.347,1039.74c-1.071-.369-1.768-.011-1.273.776a.636.636,0,0,1,.031.637c-.831,1.664,1.921,2.125,2.377.245.08-.331,15.059-9.87,15.954-9.627,1.265.343,2.858-1.109,1.079-2.082a.635.635,0,0,1-.338-.552c-.013-.462-.193-1-1.147-.95-1.246.066-1.038,1.658-1.038,1.658-2.36,1.635-14.267,10.37-15.644,9.9Zm.893,1.109.211-.7a70.361,70.361,0,0,0,7.5-4.656c2.168-1.482,5.1-3.181,7.25-4.687l.562.272c-1.792.892-5.815,3.686-7.7,4.851q-2.7,1.67-5.362,3.406C910.1,1039.722,908.825,1040.444,908.24,1040.849Z" transform="translate(-858.275 -948.85)" fill="#969697" fill-rule="evenodd"/>
        <path id="Path_353" data-name="Path 353" d="M1109.138,1019.688c.422.8.494,1.957-.876,3.4a2.627,2.627,0,0,1-1.842.961,2.051,2.051,0,0,0-.735-2.739,3.409,3.409,0,0,0,.959-.587,3.035,3.035,0,0,0,2.406-.912C1109.081,1019.769,1109.112,1019.728,1109.138,1019.688Z" transform="translate(-1037.46 -941.23)" fill="#969697" fill-rule="evenodd"/>
        <path id="Path_354" data-name="Path 354" d="M492.162,970.316q-3.767-2.649-4.966-2.128c.556,6.714-4.883,13.589-18.471,18.471-7.908,2.067-15.35,8.227-25.059,16.04q12.138-6.976,20.372-9.731c12-4.488,18.085-7.823,25.544-17.162C491.791,973.04,492.7,971.248,492.162,970.316Z" transform="translate(-443.665 -894.96)" fill="#87aece" fill-rule="evenodd"/>
        <path id="Path_355" data-name="Path 355" d="M750.925,504.817a5.08,5.08,0,0,1,.065,2.386c-.143.988,0,2.019-1.1,2.074-5.44.274-15.525,7.459-15.282,7.032.777-1.367,9.335-6.486,11.138-7.072a36.008,36.008,0,0,0,3.629-1.294c.091-.048.121-.08.118-.116s-.008-.048-.064-.09c-1.682-1.287-12.606,5.608-14.818,7.465a2.25,2.25,0,0,1-.855.421c.329-2.273,12.319-8.666,15.56-9.771C749.917,505.646,750.553,504.287,750.925,504.817Z" transform="translate(-703.858 -479.31)" fill="#969697" fill-rule="evenodd"/>
      </g>
      <g id="Group_60" data-name="Group 60" transform="translate(0.34 115.795)">
        <path id="Path_356" data-name="Path 356" d="M460.41,1392.369a8.506,8.506,0,0,1-.793,2.335,6.347,6.347,0,0,1-1.372,1.791,5.935,5.935,0,0,1-1.916,1.156,6.8,6.8,0,0,1-2.4.408,7.529,7.529,0,0,1-2.755-.5,5.909,5.909,0,0,1-2.21-1.5,7.133,7.133,0,0,1-1.462-2.46,9.948,9.948,0,0,1-.533-3.412,11.285,11.285,0,0,1,.487-3.435,7.307,7.307,0,0,1,1.394-2.585,6.062,6.062,0,0,1,2.21-1.621,7.238,7.238,0,0,1,2.913-.567,7.373,7.373,0,0,1,2.551.42,6.081,6.081,0,0,1,1.972,1.156,5.589,5.589,0,0,1,1.315,1.734,6.233,6.233,0,0,1,.6,2.131h-3.151a3.532,3.532,0,0,0-1.224-2.006,3.511,3.511,0,0,0-4.943.7,8.691,8.691,0,0,0-.011,7.8,3.078,3.078,0,0,0,2.755,1.395,3.259,3.259,0,0,0,2.256-.76,4,4,0,0,0,1.168-2.188Z" transform="translate(-446.965 -1381.985)" fill="#70879c"/>
        <path id="Path_357" data-name="Path 357" d="M614.384,1401.879v-15.054h11.064v2.63h-8v3.219h7.368v2.653h-7.368v3.877h8.366v2.675Z" transform="translate(-597.131 -1386.326)" fill="#70879c"/>
        <path id="Path_358" data-name="Path 358" d="M771.587,1401.879l-6.439-10.112v10.112h-2.925v-15.054h3.333l5.985,9.681v-9.681h2.947v15.054Z" transform="translate(-729.734 -1386.326)" fill="#70879c"/>
        <path id="Path_359" data-name="Path 359" d="M923.394,1401.879v-12.424H918.86v-2.63H931.1v2.63h-4.557v12.424Z" transform="translate(-870.229 -1386.326)" fill="#70879c"/>
        <path id="Path_360" data-name="Path 360" d="M1084.491,1401.879V1398a2.05,2.05,0,0,0-.5-1.553,2.775,2.775,0,0,0-1.859-.465h-3.356v5.895h-3.061v-15.054h7.641a5.216,5.216,0,0,1,1.893.329,4.431,4.431,0,0,1,1.462.907,3.917,3.917,0,0,1,.941,1.383,4.549,4.549,0,0,1,.329,1.734,4.05,4.05,0,0,1-.578,2.165,3.107,3.107,0,0,1-1.666,1.326,2.5,2.5,0,0,1,1.417.975,3.72,3.72,0,0,1,.419,1.973v4.262Zm-5.713-12.447v4.013h3.945a2.355,2.355,0,0,0,1.791-.567,2.028,2.028,0,0,0,.521-1.428,2.087,2.087,0,0,0-.51-1.451,2.179,2.179,0,0,0-1.689-.567Z" transform="translate(-1010.921 -1386.326)" fill="#70879c"/>
        <path id="Path_361" data-name="Path 361" d="M1242.584,1386.825h3.219v10.044a5.178,5.178,0,0,1-1.61,4.138,6.787,6.787,0,0,1-4.58,1.394,6.631,6.631,0,0,1-4.342-1.315,4.923,4.923,0,0,1-1.6-4.036v-10.225h3.2v9.931a3.291,3.291,0,0,0,.7,2.222,2.49,2.49,0,0,0,2,.816q3.015,0,3.015-2.925Z" transform="translate(-1152.599 -1386.326)" fill="#70879c"/>
        <path id="Path_362" data-name="Path 362" d="M1405.048,1401.879v-10.316l-2.811,10.316h-3.129l-2.789-10.271v10.271h-2.925v-15.054h4.625l2.721,11.041,2.721-11.041h4.534v15.054Z" transform="translate(-1295.859 -1386.326)" fill="#70879c"/>
      </g>
      <g id="Group_61" data-name="Group 61" transform="translate(0.208 135.333)" opacity="0.45">
        <path id="Path_363" data-name="Path 363" d="M450.339,1579.516V1575.4l-1.122,4.119h-1.249l-1.114-4.1v4.1h-1.168v-6.011h1.847l1.086,4.408,1.086-4.408h1.81v6.011Z" transform="translate(-445.686 -1573.306)" fill="#70879c"/>
        <path id="Path_364" data-name="Path 364" d="M519.032,1579.516v-6.011h4.418v1.05h-3.2v1.285H523.2v1.059h-2.942v1.548h3.34v1.068Z" transform="translate(-511.473 -1573.306)" fill="#70879c"/>
        <path id="Path_365" data-name="Path 365" d="M578.061,1579.516v-6.011h2.326a3.031,3.031,0,0,1,1.122.2,2.47,2.47,0,0,1,.883.584,2.709,2.709,0,0,1,.575.923,3.423,3.423,0,0,1,.208,1.231,4.008,4.008,0,0,1-.186,1.254,2.829,2.829,0,0,1-.53.969,2.385,2.385,0,0,1-.824.625,2.493,2.493,0,0,1-1.059.222Zm2.263-1.023a1.376,1.376,0,0,0,1.195-.511,2.608,2.608,0,0,0,.371-1.534,3.628,3.628,0,0,0-.09-.869,1.39,1.39,0,0,0-.294-.593,1.163,1.163,0,0,0-.52-.335,2.487,2.487,0,0,0-.77-.1h-.932v3.947Z" transform="translate(-564.419 -1573.306)" fill="#70879c"/>
        <path id="Path_366" data-name="Path 366" d="M635.57,1579.516v-2.272l-2.082-3.739h1.466l1.267,2.444,1.168-2.444h1.448l-2.01,3.757v2.254Z" transform="translate(-614.134 -1573.306)" fill="#70879c"/>
        <path id="Path_367" data-name="Path 367" d="M696.568,1575.718a3.393,3.393,0,0,1-.317.932,2.531,2.531,0,0,1-.548.715,2.372,2.372,0,0,1-.765.462,2.717,2.717,0,0,1-.96.163,3.006,3.006,0,0,1-1.1-.2,2.358,2.358,0,0,1-.883-.6,2.849,2.849,0,0,1-.584-.982,3.975,3.975,0,0,1-.213-1.362,4.508,4.508,0,0,1,.195-1.371,2.918,2.918,0,0,1,.557-1.032,2.419,2.419,0,0,1,.883-.647,2.892,2.892,0,0,1,1.163-.226,2.942,2.942,0,0,1,1.018.167,2.43,2.43,0,0,1,.788.462,2.23,2.23,0,0,1,.525.693,2.49,2.49,0,0,1,.24.851H695.31a1.41,1.41,0,0,0-.489-.8,1.4,1.4,0,0,0-1.973.281,3.47,3.47,0,0,0,0,3.114,1.229,1.229,0,0,0,1.1.557,1.3,1.3,0,0,0,.9-.3,1.6,1.6,0,0,0,.466-.873Z" transform="translate(-665.898 -1571.572)" fill="#70879c"/>
        <path id="Path_368" data-name="Path 368" d="M752.925,1579.516v-2.272l-2.082-3.739h1.466l1.267,2.444,1.168-2.444h1.448l-2.01,3.757v2.254Z" transform="translate(-719.395 -1573.306)" fill="#70879c"/>
        <path id="Path_369" data-name="Path 369" d="M821.516,1579.516l-2.571-4.037v4.037h-1.168v-6.011h1.331l2.39,3.865v-3.865h1.177v6.011Z" transform="translate(-779.431 -1573.306)" fill="#70879c"/>
        <path id="Path_370" data-name="Path 370" d="M882.312,1579.516v-2.272l-2.082-3.739H881.7l1.267,2.444,1.168-2.444h1.448l-2.01,3.757v2.254Z" transform="translate(-835.448 -1573.306)" fill="#70879c"/>
        <path id="Path_371" data-name="Path 371" d="M982.695,1573.546a.944.944,0,0,0-.335-.688,1.381,1.381,0,0,0-.86-.226,1.463,1.463,0,0,0-.806.181.592.592,0,0,0-.272.525.563.563,0,0,0,.213.462,1.931,1.931,0,0,0,.72.3q.516.127.982.249a4.937,4.937,0,0,1,.8.276,2.464,2.464,0,0,1,.371.208,1.241,1.241,0,0,1,.3.29,1.356,1.356,0,0,1,.2.407,1.889,1.889,0,0,1,.072.552,1.915,1.915,0,0,1-.177.855,1.607,1.607,0,0,1-.5.593,2.2,2.2,0,0,1-.76.349,3.866,3.866,0,0,1-.964.113,4,4,0,0,1-1.023-.122,2.265,2.265,0,0,1-.8-.376,1.8,1.8,0,0,1-.525-.629,2.011,2.011,0,0,1-.2-.883h1.213a.908.908,0,0,0,.376.729,1.574,1.574,0,0,0,.964.267,1.445,1.445,0,0,0,.865-.222.733.733,0,0,0,.3-.629.692.692,0,0,0-.041-.244.534.534,0,0,0-.145-.2,1,1,0,0,0-.285-.172,2.762,2.762,0,0,0-.462-.14q-.561-.127-.946-.222a3.989,3.989,0,0,1-.7-.24,1.825,1.825,0,0,1-.747-.566,1.508,1.508,0,0,1-.258-.919,2,2,0,0,1,.136-.747,1.527,1.527,0,0,1,.412-.584,1.937,1.937,0,0,1,.688-.38,3.087,3.087,0,0,1,.964-.136,3.267,3.267,0,0,1,1.014.145,2.141,2.141,0,0,1,.747.407,1.839,1.839,0,0,1,.471.625,2.087,2.087,0,0,1,.186.8Z" transform="translate(-924.162 -1571.572)" fill="#70879c"/>
        <path id="Path_372" data-name="Path 372" d="M1042.382,1579.516v-6.011h2.652a2.029,2.029,0,0,1,.8.149,1.789,1.789,0,0,1,.606.417,1.865,1.865,0,0,1,.389.62,2.1,2.1,0,0,1,.136.76,2.063,2.063,0,0,1-.136.756,1.682,1.682,0,0,1-.389.6,1.805,1.805,0,0,1-.606.389,2.141,2.141,0,0,1-.8.14h-1.394v2.182Zm2.453-3.2a1.05,1.05,0,0,0,.783-.249.894.894,0,0,0,.24-.647.854.854,0,0,0-.24-.625,1.063,1.063,0,0,0-.783-.245h-1.195v1.765Z" transform="translate(-980.889 -1573.306)" fill="#70879c"/>
        <path id="Path_373" data-name="Path 373" d="M1103.771,1577.99a2.758,2.758,0,0,1-2.141-.815,3.35,3.35,0,0,1-.747-2.344,4.56,4.56,0,0,1,.19-1.367,2.792,2.792,0,0,1,.561-1.027,2.43,2.43,0,0,1,.905-.643,3.513,3.513,0,0,1,2.458,0,2.327,2.327,0,0,1,.9.647,2.915,2.915,0,0,1,.552,1.036,4.639,4.639,0,0,1,.19,1.381,3.316,3.316,0,0,1-.738,2.344A2.781,2.781,0,0,1,1103.771,1577.99Zm0-1.077a1.657,1.657,0,0,0,.634-.122,1.4,1.4,0,0,0,.521-.371,1.769,1.769,0,0,0,.349-.638,2.994,2.994,0,0,0,.127-.923,2.666,2.666,0,0,0-.416-1.62,1.426,1.426,0,0,0-1.213-.552,1.451,1.451,0,0,0-1.222.552,2.621,2.621,0,0,0-.426,1.62,2.343,2.343,0,0,0,.43,1.562A1.528,1.528,0,0,0,1103.771,1576.913Z" transform="translate(-1033.361 -1571.572)" fill="#70879c"/>
        <path id="Path_374" data-name="Path 374" d="M1176.24,1579.516v-1.548a.819.819,0,0,0-.2-.62,1.109,1.109,0,0,0-.742-.186h-1.34v2.354h-1.222v-6.011h3.051a2.088,2.088,0,0,1,.756.131,1.771,1.771,0,0,1,.584.362,1.561,1.561,0,0,1,.376.552,1.817,1.817,0,0,1,.131.693,1.616,1.616,0,0,1-.231.865,1.241,1.241,0,0,1-.665.53,1,1,0,0,1,.566.389,1.484,1.484,0,0,1,.167.788v1.7Zm-2.281-4.97v1.6h1.575a.94.94,0,0,0,.715-.226.81.81,0,0,0,.208-.57.833.833,0,0,0-.2-.579.87.87,0,0,0-.674-.226Z" transform="translate(-1097.81 -1573.306)" fill="#70879c"/>
        <path id="Path_375" data-name="Path 375" d="M1235.948,1579.516v-4.961h-1.811v-1.05h4.888v1.05h-1.82v4.961Z" transform="translate(-1152.883 -1573.306)" fill="#70879c"/>
        <path id="Path_376" data-name="Path 376" d="M1296.228,1577.99a2.758,2.758,0,0,1-2.141-.815,3.35,3.35,0,0,1-.747-2.344,4.56,4.56,0,0,1,.19-1.367,2.792,2.792,0,0,1,.561-1.027,2.428,2.428,0,0,1,.905-.643,3.513,3.513,0,0,1,2.458,0,2.326,2.326,0,0,1,.9.647,2.915,2.915,0,0,1,.552,1.036,4.639,4.639,0,0,1,.19,1.381,3.316,3.316,0,0,1-.738,2.344A2.78,2.78,0,0,1,1296.228,1577.99Zm0-1.077a1.656,1.656,0,0,0,.634-.122,1.4,1.4,0,0,0,.521-.371,1.77,1.77,0,0,0,.348-.638,2.994,2.994,0,0,0,.127-.923,2.666,2.666,0,0,0-.416-1.62,1.426,1.426,0,0,0-1.213-.552,1.45,1.45,0,0,0-1.222.552,2.62,2.62,0,0,0-.426,1.62,2.343,2.343,0,0,0,.43,1.562A1.528,1.528,0,0,0,1296.228,1576.913Z" transform="translate(-1205.985 -1571.572)" fill="#70879c"/>
        <path id="Path_377" data-name="Path 377" d="M1362.666,1579.516l-.932-3.911-.951,3.911h-1.177l-1.7-6.011h1.34l.987,3.892.833-3.892h1.322l.914,3.892.978-3.892h1.285l-1.684,6.011Z" transform="translate(-1263.895 -1573.306)" fill="#70879c"/>
        <path id="Path_378" data-name="Path 378" d="M1447.149,1579.516v-6.011h4.418v1.05h-3.2v1.285h2.942v1.059h-2.942v1.548h3.34v1.068Z" transform="translate(-1343.943 -1573.306)" fill="#70879c"/>
        <path id="Path_379" data-name="Path 379" d="M1507.08,1573.505h1.258v4.39a1.8,1.8,0,0,1-.5,1.326,1.991,1.991,0,0,1-1.475.5,1.9,1.9,0,0,1-1.367-.466,1.845,1.845,0,0,1-.489-1.4v-.615h1.141v.552a1.159,1.159,0,0,0,.163.683.839.839,0,0,0,1.127.009,1.345,1.345,0,0,0,.14-.711Z" transform="translate(-1395.391 -1573.306)" fill="#70879c"/>
      </g>
    </g>
  </g>
</svg>
