<?xml version="1.0" encoding="utf-8"?>
<!-- Generator: Adobe Illustrator 24.3.0, SVG Export Plug-In . SVG Version: 6.00 Build 0)  -->
<svg version="1.1" id="Warstwa_1" xmlns="http://www.w3.org/2000/svg" xmlns:xlink="http://www.w3.org/1999/xlink" x="0px" y="0px"
	 viewBox="0 0 151 141.4" style="enable-background:new 0 0 151 141.4;" xml:space="preserve">
<style type="text/css">
	.st0{fill:url(#Path_82_1_);}
	.st1{fill:#EC5C42;}
	.st2{fill:url(#Path_84_1_);}
	.st3{fill:url(#Path_85_1_);}
	.st4{fill:url(#Path_86_1_);}
	.st5{fill:#18BCDB;}
	.st6{fill:url(#Path_88_1_);}
	.st7{fill:url(#Path_89_1_);}
	.st8{fill:url(#Path_90_1_);}
	.st9{enable-background:new    ;}
	.st10{fill:#677477;}
</style>
<g id="Group_269" transform="translate(-1275 -1851)">
	<g id="Group_219" transform="translate(1275 1851)">
		<g id="Group_218" transform="translate(26.348 0)">
			
				<linearGradient id="Path_82_1_" gradientUnits="userSpaceOnUse" x1="-234.0985" y1="484.4653" x2="-234.0985" y2="483.7923" gradientTransform="matrix(16.146 0 0 -50.219 3849.8918 24390.8828)">
				<stop  offset="0" style="stop-color:#18BCDB"/>
				<stop  offset="1" style="stop-color:#0E7493"/>
			</linearGradient>
			<path id="Path_82" class="st0" d="M78.2,86.5V72.2c0-12.6-5-24.6-13.9-33.6l-2.2,5.8l3.5,13.3c1.9,4.6,2.9,9.5,2.9,14.4v14.2
				l5.2,2.4L78.2,86.5z"/>
			<path id="Path_83" class="st1" d="M61.7,9.7c3.8,0,6.8,3,6.8,6.8V29c0,3,2.5,5.5,5.5,5.5h12.5c3.8,0,6.8,3.1,6.8,6.8v20.4
				c0,3.8-3.1,6.8-6.8,6.8H72.2c-20.8,0-37.7-16.9-37.7-37.7V16.5c0-3.8,3-6.8,6.8-6.8L61.7,9.7 M61.7,0H41.3
				c-9.1,0-16.5,7.4-16.5,16.5v14.2C24.8,57,46,78.2,72.2,78.2h14.2c9.1,0,16.5-7.4,16.5-16.5c0,0,0,0,0,0V41.3
				c0-9.1-7.4-16.5-16.5-16.5c0,0,0,0,0,0h-8.3v-8.3C78.2,7.4,70.8,0,61.7,0C61.7,0,61.7,0,61.7,0L61.7,0z"/>
			
				<linearGradient id="Path_84_1_" gradientUnits="userSpaceOnUse" x1="-239.3873" y1="470.2097" x2="-238.8654" y2="470.2097" gradientTransform="matrix(24.775 0 0 -16.525 6009.0332 7803.2524)">
				<stop  offset="0" style="stop-color:#AD081D"/>
				<stop  offset="1" style="stop-color:#EC5C42"/>
			</linearGradient>
			<path id="Path_84" class="st2" d="M103,41.3c0-9.1-7.4-16.5-16.5-16.5c0,0,0,0,0,0h-8.3c0,10.1,8.3,9.7,8.3,9.7
				c3.8,0,6.8,3,6.8,6.8H103z"/>
			
				<linearGradient id="Path_85_1_" gradientUnits="userSpaceOnUse" x1="-234.4138" y1="474.1923" x2="-234.4138" y2="475.2333" gradientTransform="matrix(16.525 0 0 -21.047 3906.7231 10012.5176)">
				<stop  offset="0" style="stop-color:#EC5C42"/>
				<stop  offset="0.238" style="stop-color:#D63F35"/>
				<stop  offset="0.549" style="stop-color:#BF2128"/>
				<stop  offset="0.814" style="stop-color:#B20E1F"/>
				<stop  offset="1" style="stop-color:#AD081D"/>
			</linearGradient>
			<path id="Path_85" class="st3" d="M34.5,30.8V16.5c0-3.8,3-6.8,6.8-6.8c-12.9,0-16.5,2.2-16.5,6.8v14.2L34.5,30.8z"/>
			
				<linearGradient id="Path_86_1_" gradientUnits="userSpaceOnUse" x1="-234.7243" y1="393.6117" x2="-234.7243" y2="394.4407" gradientTransform="matrix(16.916 0 0 -16.525 4055.4146 7840.1636)">
				<stop  offset="0" style="stop-color:#EC5C42"/>
				<stop  offset="1" style="stop-color:#AD081D"/>
			</linearGradient>
			<path id="Path_86" class="st4" d="M76.4,78.2h10.1c4.6,0,6.8-3.6,6.8-16.5c0,3.8-3,6.8-6.8,6.8H76.4V78.2z"/>
			<path id="Path_87" class="st5" d="M33.2,34.5c4.4-0.1,8.8,0.9,12.9,2.7c4.3,2.1,8.1,4.9,11.4,8.3c3.5,3.5,6.3,7.7,8.2,12.2
				l-1.3-19.1c-8.9-8.9-18.6-13.9-31.1-13.9H16.5C7.4,24.8,0,32.2,0,41.3c0,0,0,0,0,0v20.4c0,9.1,7.4,16.5,16.5,16.5l0,0h8.3v8.3
				c0,9.1,7.4,16.5,16.5,16.5h20.4c9.1,0,16.5-7.4,16.5-16.5c0,0,0,0,0,0h-9.7c0,3.8-3.1,6.8-6.8,6.8H41.3c-3.8,0-6.8-3.1-6.8-6.8
				V74c0-3-2.5-5.5-5.5-5.5H16.5c-3.8,0-6.8-3.1-6.8-6.8V41.3c0-3.8,3.1-6.8,6.8-6.8L33.2,34.5"/>
			
				<linearGradient id="Path_88_1_" gradientUnits="userSpaceOnUse" x1="-234.4138" y1="467.757" x2="-234.4138" y2="465.301" gradientTransform="matrix(16.525 0 0 -13.758 3943.6362 6496.9312)">
				<stop  offset="0" style="stop-color:#18BCDB"/>
				<stop  offset="1" style="stop-color:#0E7493"/>
			</linearGradient>
			<path id="Path_88" class="st6" d="M68.5,79.5v6.9c0,3.8-3.1,6.8-6.8,6.8c12.9,0,16.5-2.2,16.5-6.8v-6.9H68.5z"/>
			
				<linearGradient id="Path_89_1_" gradientUnits="userSpaceOnUse" x1="-111.0437" y1="470.2097" x2="-110.5227" y2="470.2097" gradientTransform="matrix(24.776 0 0 -16.525 5931.0703 7840.1631)">
				<stop  offset="0" style="stop-color:#0E7493"/>
				<stop  offset="1" style="stop-color:#18BCDB"/>
			</linearGradient>
			<path id="Path_89" class="st7" d="M0,61.7c0,9.1,7.4,16.5,16.5,16.5h8.3c0-10.1-8.3-9.7-8.3-9.7c-3.8,0-6.8-3.1-6.8-6.8H0z"/>
			
				<linearGradient id="Path_90_1_" gradientUnits="userSpaceOnUse" x1="-234.7251" y1="579.0657" x2="-234.7251" y2="579.8947" gradientTransform="matrix(16.917 0 0 -16.525 3989.0161 7803.2505)">
				<stop  offset="0" style="stop-color:#18BCDB"/>
				<stop  offset="1" style="stop-color:#0E7493"/>
			</linearGradient>
			<path id="Path_90" class="st8" d="M26.6,24.8H16.5c-4.6,0-6.8,3.6-6.8,16.5c0-3.8,3.1-6.8,6.8-6.8h10.1V24.8z"/>
		</g>
		<g class="st9">
			<path class="st10" d="M0.5,124.7l5.4-16.3h3.8l5,16.3h-3.6l-1.4-4.5H4l-1.5,4.5H0.5z M4.5,118.6h4.7L7,111h0L4.5,118.6z"/>
			<path class="st10" d="M16.7,112.2h2.7l0.5,1.1h0.1c0,0,0.1-0.2,0.4-0.4c0.3-0.2,0.7-0.5,1.2-0.7c0.5-0.2,1.1-0.3,1.8-0.3
				c1.5,0,2.6,0.6,3.5,1.7c0.9,1.1,1.3,2.7,1.3,4.6c0,1.3-0.2,2.5-0.6,3.6s-1,1.8-1.7,2.4c-0.7,0.6-1.6,0.8-2.6,0.8
				c-0.6,0-1.2-0.1-1.6-0.2c-0.4-0.1-0.8-0.3-1-0.5c-0.2-0.2-0.4-0.3-0.4-0.3H20v6.9l-3.3,0.1V112.2z M23.4,122.7
				c0.4-0.3,0.7-0.8,0.8-1.5c0.2-0.7,0.3-1.6,0.3-2.9c0-1.2-0.1-2-0.3-2.7c-0.2-0.6-0.4-1.1-0.8-1.3c-0.3-0.3-0.8-0.4-1.3-0.4
				c-0.4,0-0.8,0.1-1.1,0.2c-0.3,0.1-0.5,0.3-0.7,0.5c-0.2,0.2-0.3,0.3-0.3,0.4v7.3c0,0,0.1,0.1,0.3,0.3c0.1,0.1,0.3,0.3,0.6,0.4
				s0.6,0.2,1,0.2C22.5,123.1,23,123,23.4,122.7z"/>
			<path class="st10" d="M31.6,124.1c-0.6-0.6-0.8-1.6-0.8-3v-7h-1.2v-1.5l1.2-0.3l1.6-4.2h1.7v4.2h2.8v1.9h-2.8v6.2
				c0,0.8,0,1.4,0.1,1.8c0.1,0.4,0.2,0.7,0.4,0.8c0.2,0.2,0.4,0.2,0.7,0.2c0.3,0,0.6,0,0.9-0.1c0.3-0.1,0.4-0.1,0.4-0.1l0.2,1.4
				c0,0-0.1,0.1-0.3,0.2c-0.2,0.1-0.5,0.2-0.8,0.3c-0.4,0.1-0.8,0.1-1.4,0.1C33.1,125,32.2,124.7,31.6,124.1z"/>
			<path class="st10" d="M39.9,123.5c-1-1-1.5-2.6-1.5-4.8c0-2.2,0.5-3.8,1.5-5c1-1.2,2.4-1.7,4-1.7c1.6,0,2.8,0.5,3.6,1.5
				c0.9,1,1.3,2.4,1.3,4.2c0,0.4,0,0.8-0.1,1c-0.1,0.3-0.1,0.5-0.1,0.5h-6.7c0,1.5,0.2,2.6,0.7,3.2c0.4,0.6,1.1,0.9,2.1,0.9
				c0.6,0,1.1-0.1,1.5-0.4c0.4-0.2,0.8-0.5,1-0.8c0.3-0.3,0.4-0.5,0.4-0.5l1.1,0.9c0,0.1-0.2,0.3-0.5,0.7c-0.3,0.4-0.8,0.8-1.5,1.2
				c-0.7,0.4-1.5,0.6-2.4,0.6C42.4,125,40.9,124.5,39.9,123.5z M45.7,117.6V117c0-1.3-0.1-2.2-0.4-2.7c-0.3-0.5-0.7-0.8-1.4-0.8
				c-0.5,0-0.8,0.1-1.1,0.4s-0.5,0.6-0.6,1.2c-0.1,0.6-0.2,1.4-0.3,2.4H45.7z"/>
			<path class="st10" d="M51,124.7v-18.7l3.3-0.2v11.6l1.7-1.2l2.6-4.1h2.1l-3.3,4.7l4,7.8h-3.8l-2.8-5.8l-0.6,0.4v5.5H51z"/>
			<path class="st10" d="M63.5,124.1c-0.7-0.6-1.1-1.4-1.1-2.4c0-1.5,0.7-2.5,2.1-3.2s3-1.1,4.8-1.2v-0.7c0-1.1-0.2-1.9-0.5-2.3
				c-0.3-0.4-0.9-0.6-1.6-0.6c-0.4,0-0.7,0.1-1.2,0.2c-0.4,0.1-0.8,0.3-1.1,0.4c-0.3,0.1-0.5,0.3-0.6,0.3l-0.3-1.6
				c0.1,0,0.3-0.2,0.7-0.3c0.4-0.2,0.8-0.3,1.4-0.5c0.6-0.2,1.2-0.2,1.7-0.2c1.6,0,2.8,0.3,3.6,1c0.8,0.7,1.2,1.8,1.2,3.4v5.7
				c0,0.9,0.2,1.3,0.5,1.3c0.1,0,0.3,0,0.5-0.1c0.2-0.1,0.3-0.1,0.4-0.1l0.1,1.3c-0.1,0-0.3,0.1-0.6,0.2c-0.3,0.1-0.7,0.2-1.1,0.3
				c-0.4,0.1-0.8,0.1-1.1,0.1c-0.5,0-0.9-0.1-1.1-0.4c-0.3-0.2-0.4-0.6-0.5-1.2h-0.1c0,0.1-0.1,0.2-0.3,0.5
				c-0.2,0.3-0.6,0.5-1.1,0.7s-1.1,0.4-1.9,0.4C65.1,125,64.2,124.7,63.5,124.1z M68.4,123c0.3-0.2,0.5-0.4,0.7-0.7
				c0.1-0.2,0.2-0.4,0.2-0.4v-3.3c-1.1,0.1-2,0.4-2.5,0.8c-0.6,0.4-0.9,1-0.9,1.9c0,0.7,0.1,1.2,0.4,1.5s0.6,0.5,1.1,0.5
				C67.8,123.3,68.1,123.2,68.4,123z"/>
			<path class="st10" d="M75.4,118.8v-1.8h6.8v1.8H75.4z"/>
			<path class="st10" d="M85.7,122.8c-1.3-1.5-1.9-3.5-1.9-6.1c0-2.6,0.6-4.7,1.9-6.2s3.1-2.3,5.4-2.3c2.4,0,4.2,0.8,5.5,2.3
				s1.9,3.6,1.9,6.1c0,2.6-0.6,4.6-1.9,6.1s-3.1,2.3-5.5,2.3C88.8,125,87,124.3,85.7,122.8z M93.9,121.7c0.6-1,0.8-2.7,0.8-5
				c0-2.3-0.3-4-0.8-5s-1.5-1.6-2.8-1.6c-1.3,0-2.2,0.5-2.7,1.6s-0.8,2.7-0.8,5c0,2.3,0.3,4,0.8,5c0.5,1,1.5,1.6,2.7,1.6
				C92.5,123.2,93.4,122.7,93.9,121.7z"/>
			<path class="st10" d="M101,112.2h2.7l0.4,1h0.1c0,0,0.1-0.2,0.4-0.4s0.7-0.4,1.2-0.6c0.5-0.2,1.2-0.3,1.9-0.3
				c1.3,0,2.2,0.3,2.9,1c0.6,0.7,1,1.8,1,3.2v8.5h-3.3v-7.8c0-1.1-0.1-1.9-0.4-2.3c-0.2-0.4-0.7-0.6-1.3-0.6c-0.4,0-0.8,0.1-1.2,0.2
				c-0.3,0.1-0.6,0.3-0.8,0.4c-0.2,0.2-0.3,0.2-0.3,0.3v9.8H101V112.2z"/>
			<path class="st10" d="M114.4,124.7v-18.7l3.3-0.2v18.8H114.4z"/>
			<path class="st10" d="M121.1,109.9c-0.4-0.4-0.6-0.9-0.6-1.4c0-0.5,0.2-1,0.6-1.4c0.3-0.3,0.8-0.5,1.3-0.5c0.5,0,0.9,0.2,1.3,0.5
				c0.4,0.4,0.6,0.9,0.6,1.4c0,0.6-0.2,1.1-0.6,1.5c-0.4,0.3-0.8,0.5-1.3,0.5C122,110.4,121.5,110.2,121.1,109.9z M120.8,124.7
				v-12.5h3.3v12.5H120.8z"/>
			<path class="st10" d="M127.1,112.2h2.7l0.4,1h0.1c0,0,0.1-0.2,0.4-0.4s0.7-0.4,1.2-0.6c0.5-0.2,1.2-0.3,1.9-0.3
				c1.3,0,2.2,0.3,2.9,1c0.6,0.7,1,1.8,1,3.2v8.5h-3.3v-7.8c0-1.1-0.1-1.9-0.4-2.3c-0.2-0.4-0.7-0.6-1.3-0.6c-0.4,0-0.8,0.1-1.2,0.2
				c-0.3,0.1-0.6,0.3-0.8,0.4c-0.2,0.2-0.3,0.2-0.3,0.3v9.8h-3.3V112.2z"/>
			<path class="st10" d="M141.3,123.5c-1-1-1.5-2.6-1.5-4.8c0-2.2,0.5-3.8,1.5-5c1-1.2,2.3-1.7,4-1.7c1.6,0,2.8,0.5,3.6,1.5
				c0.9,1,1.3,2.4,1.3,4.2c0,0.4,0,0.8-0.1,1s-0.1,0.5-0.1,0.5h-6.7c0,1.5,0.2,2.6,0.7,3.2c0.4,0.6,1.1,0.9,2.1,0.9
				c0.6,0,1.1-0.1,1.5-0.4c0.4-0.2,0.8-0.5,1-0.8c0.3-0.3,0.4-0.5,0.4-0.5l1.1,0.9c0,0.1-0.2,0.3-0.5,0.7c-0.3,0.4-0.8,0.8-1.5,1.2
				c-0.7,0.4-1.5,0.6-2.4,0.6C143.8,125,142.4,124.5,141.3,123.5z M147.1,117.6V117c0-1.3-0.1-2.2-0.4-2.7c-0.3-0.5-0.7-0.8-1.4-0.8
				c-0.5,0-0.8,0.1-1.1,0.4c-0.3,0.2-0.5,0.6-0.6,1.2c-0.1,0.6-0.2,1.4-0.3,2.4H147.1z"/>
		</g>
		<g class="st9">
			<path class="st10" d="M16.5,139.4v-4.5h1l1.9,3.1h0l0-0.3v-2.8H20v4.5h-0.8l-2.2-3.4h0l0.1,0.4v3H16.5z"/>
			<path class="st10" d="M21,139.2c-0.2-0.2-0.3-0.4-0.3-0.7c0-0.4,0.2-0.7,0.6-0.9c0.4-0.2,0.8-0.3,1.3-0.3v-0.2
				c0-0.3,0-0.5-0.1-0.7s-0.2-0.2-0.4-0.2c-0.1,0-0.2,0-0.3,0.1c-0.1,0-0.2,0.1-0.3,0.1c-0.1,0-0.2,0.1-0.2,0.1l-0.1-0.4
				c0,0,0.1,0,0.2-0.1c0.1,0,0.2-0.1,0.4-0.1s0.3-0.1,0.5-0.1c0.4,0,0.8,0.1,1,0.3c0.2,0.2,0.3,0.5,0.3,0.9v1.6c0,0.2,0,0.4,0.1,0.4
				c0,0,0.1,0,0.1,0c0.1,0,0.1,0,0.1,0l0,0.4c0,0-0.1,0-0.2,0c-0.1,0-0.2,0-0.3,0.1s-0.2,0-0.3,0c-0.1,0-0.2,0-0.3-0.1
				c-0.1-0.1-0.1-0.2-0.1-0.3h0c0,0,0,0.1-0.1,0.1s-0.2,0.1-0.3,0.2c-0.1,0.1-0.3,0.1-0.5,0.1C21.5,139.4,21.2,139.4,21,139.2z
				 M22.4,138.9c0.1-0.1,0.1-0.1,0.2-0.2c0-0.1,0.1-0.1,0.1-0.1v-0.9c-0.3,0-0.5,0.1-0.7,0.2c-0.2,0.1-0.2,0.3-0.2,0.5
				c0,0.2,0,0.3,0.1,0.4s0.2,0.1,0.3,0.1C22.2,139,22.3,138.9,22.4,138.9z"/>
			<path class="st10" d="M24.1,141.1c-0.1,0-0.2-0.1-0.2-0.1c-0.1,0-0.1-0.1-0.1-0.1l0.2-0.4c0,0,0,0,0.1,0c0,0,0.1,0,0.1,0.1
				c0.1,0,0.1,0,0.2,0c0.1,0,0.3-0.1,0.3-0.2c0.1-0.2,0.1-0.5,0.1-0.9v-3.7h0.9v3.7c0,0.6-0.1,1-0.3,1.2c-0.2,0.3-0.5,0.4-0.9,0.4
				C24.3,141.2,24.2,141.2,24.1,141.1z M24.8,135.2c-0.1-0.1-0.2-0.2-0.2-0.4c0-0.2,0.1-0.3,0.2-0.4c0.1-0.1,0.2-0.1,0.4-0.1
				c0.1,0,0.3,0,0.4,0.1c0.1,0.1,0.2,0.2,0.2,0.4c0,0.2-0.1,0.3-0.2,0.4c-0.1,0.1-0.2,0.1-0.4,0.1C25.1,135.3,24.9,135.3,24.8,135.2
				z"/>
			<path class="st10" d="M27.1,139.4l-1-3.5h1.1l0.5,2.3h0l0.7-2.3H29l0.7,2.3h0l0.6-2.3H31l-1,3.5h-0.7l-0.6-2.3v0h0l-0.7,2.3H27.1
				z"/>
			<path class="st10" d="M31.5,135.2c-0.1-0.1-0.2-0.2-0.2-0.4c0-0.2,0.1-0.3,0.2-0.4c0.1-0.1,0.2-0.1,0.4-0.1c0.1,0,0.3,0,0.4,0.1
				c0.1,0.1,0.2,0.2,0.2,0.4c0,0.2-0.1,0.3-0.2,0.4c-0.1,0.1-0.2,0.1-0.4,0.1C31.7,135.3,31.6,135.3,31.5,135.2z M31.4,139.4v-3.5
				h0.9v3.5H31.4z"/>
			<path class="st10" d="M34.3,140.9c-0.2-0.1-0.3-0.3-0.3-0.6c0-0.3,0.2-0.6,0.5-0.9c-0.5,0-0.9-0.2-1.1-0.5s-0.4-0.7-0.4-1.3
				c0-0.6,0.1-1.1,0.4-1.4c0.3-0.3,0.7-0.5,1.1-0.5c0.4,0,0.8,0.1,1,0.4c0.2,0.3,0.4,0.7,0.4,1.2c0,0.1,0,0.2,0,0.3
				c0,0.1,0,0.1,0,0.1H34c0,0.4,0.1,0.7,0.2,0.9s0.3,0.3,0.6,0.3c0.2,0,0.3,0,0.4-0.1c0.1-0.1,0.2-0.1,0.3-0.2
				c0.1-0.1,0.1-0.1,0.1-0.1l0.3,0.2c0,0,0,0.1-0.1,0.1c-0.1,0.1-0.1,0.2-0.3,0.3c-0.1,0.1-0.3,0.2-0.4,0.2
				c-0.1,0.1-0.2,0.2-0.3,0.3c-0.1,0.1-0.1,0.3-0.1,0.5c0,0.2,0,0.4,0.1,0.4c0.1,0.1,0.2,0.1,0.4,0.1v0.3
				C34.8,141.1,34.5,141.1,34.3,140.9z M35,137.4v-0.2c0-0.4,0-0.6-0.1-0.7s-0.2-0.2-0.4-0.2c-0.1,0-0.2,0-0.3,0.1
				c-0.1,0.1-0.1,0.2-0.2,0.3s-0.1,0.4-0.1,0.7H35z"/>
			<path class="st10" d="M36.5,139.4v-5.2l0.9-0.1v3.3l0.5-0.3l0.7-1.2h0.6l-0.9,1.3l1.1,2.2h-1.1l-0.8-1.6l-0.2,0.1v1.5H36.5z"/>
			<path class="st10" d="M40.2,139.3c-0.2-0.1-0.3-0.2-0.4-0.2c-0.1-0.1-0.1-0.1-0.1-0.2l0.3-0.4c0,0,0,0.1,0.1,0.1
				c0.1,0.1,0.2,0.1,0.3,0.2c0.1,0.1,0.2,0.1,0.4,0.1c0.2,0,0.3,0,0.4-0.1c0.1-0.1,0.1-0.2,0.1-0.4c0-0.1,0-0.3-0.1-0.3
				c-0.1-0.1-0.2-0.2-0.4-0.3c-0.2-0.1-0.3-0.2-0.4-0.2c-0.1-0.1-0.2-0.2-0.3-0.3c-0.1-0.1-0.1-0.3-0.1-0.5c0-0.3,0.1-0.6,0.4-0.8
				c0.2-0.2,0.5-0.3,0.9-0.3c0.1,0,0.3,0,0.4,0.1c0.1,0,0.3,0.1,0.4,0.1s0.2,0.1,0.2,0.1l-0.1,0.5c0,0-0.1,0-0.2-0.1
				s-0.2-0.1-0.3-0.1c-0.1,0-0.2-0.1-0.3-0.1c-0.1,0-0.3,0-0.3,0.1c-0.1,0.1-0.1,0.2-0.1,0.3c0,0.1,0.1,0.3,0.2,0.3s0.3,0.2,0.5,0.3
				c0.2,0.1,0.3,0.2,0.5,0.3s0.2,0.2,0.3,0.3s0.1,0.3,0.1,0.5c0,0.3-0.1,0.6-0.3,0.8s-0.6,0.3-1,0.3
				C40.6,139.4,40.4,139.4,40.2,139.3z"/>
			<path class="st10" d="M42.6,139.4v-0.4l1.6-2.6h-1.5l0-0.5h2.6v0.4l-1.6,2.6h1.5l0,0.5H42.6z"/>
			<path class="st10" d="M46,139.2c-0.2-0.2-0.3-0.4-0.3-0.7c0-0.4,0.2-0.7,0.6-0.9c0.4-0.2,0.8-0.3,1.3-0.3v-0.2
				c0-0.3,0-0.5-0.1-0.7s-0.2-0.2-0.4-0.2c-0.1,0-0.2,0-0.3,0.1c-0.1,0-0.2,0.1-0.3,0.1c-0.1,0-0.2,0.1-0.2,0.1l-0.1-0.4
				c0,0,0.1,0,0.2-0.1c0.1,0,0.2-0.1,0.4-0.1s0.3-0.1,0.5-0.1c0.4,0,0.8,0.1,1,0.3c0.2,0.2,0.3,0.5,0.3,0.9v1.6c0,0.2,0,0.4,0.1,0.4
				c0,0,0.1,0,0.1,0c0.1,0,0.1,0,0.1,0l0,0.4c0,0-0.1,0-0.2,0c-0.1,0-0.2,0-0.3,0.1s-0.2,0-0.3,0c-0.1,0-0.2,0-0.3-0.1
				c-0.1-0.1-0.1-0.2-0.1-0.3h0c0,0,0,0.1-0.1,0.1s-0.2,0.1-0.3,0.2c-0.1,0.1-0.3,0.1-0.5,0.1C46.4,139.4,46.2,139.4,46,139.2z
				 M47.3,138.9c0.1-0.1,0.1-0.1,0.2-0.2c0-0.1,0.1-0.1,0.1-0.1v-0.9c-0.3,0-0.5,0.1-0.7,0.2c-0.2,0.1-0.2,0.3-0.2,0.5
				c0,0.2,0,0.3,0.1,0.4s0.2,0.1,0.3,0.1C47.2,139,47.3,138.9,47.3,138.9z"/>
			<path class="st10" d="M51.4,135.2c-0.1-0.1-0.2-0.2-0.2-0.4c0-0.2,0.1-0.3,0.2-0.4c0.1-0.1,0.2-0.1,0.4-0.1c0.1,0,0.3,0,0.4,0.1
				c0.1,0.1,0.2,0.2,0.2,0.4c0,0.2-0.1,0.3-0.2,0.4c-0.1,0.1-0.2,0.1-0.4,0.1C51.6,135.3,51.5,135.3,51.4,135.2z M51.3,139.4v-3.5
				h0.9v3.5H51.3z"/>
			<path class="st10" d="M53,135.9h0.7l0.1,0.3h0c0,0,0,0,0.1-0.1c0.1-0.1,0.2-0.1,0.3-0.2c0.1-0.1,0.3-0.1,0.5-0.1
				c0.4,0,0.6,0.1,0.8,0.3s0.3,0.5,0.3,0.9v2.4h-0.9v-2.2c0-0.3,0-0.5-0.1-0.6c-0.1-0.1-0.2-0.2-0.4-0.2c-0.1,0-0.2,0-0.3,0.1
				c-0.1,0-0.2,0.1-0.2,0.1c-0.1,0-0.1,0.1-0.1,0.1v2.7H53V135.9z"/>
			<path class="st10" d="M57.2,139.2c-0.2-0.2-0.2-0.4-0.2-0.8v-2h-0.3V136l0.3-0.1l0.4-1.2h0.5v1.2h0.8v0.5h-0.8v1.7
				c0,0.2,0,0.4,0,0.5s0.1,0.2,0.1,0.2c0,0,0.1,0.1,0.2,0.1c0.1,0,0.2,0,0.3,0s0.1,0,0.1,0l0.1,0.4c0,0,0,0-0.1,0s-0.1,0.1-0.2,0.1
				c-0.1,0-0.2,0-0.4,0C57.6,139.4,57.3,139.4,57.2,139.2z"/>
			<path class="st10" d="M59.5,139c-0.3-0.3-0.4-0.7-0.4-1.3c0-0.6,0.1-1.1,0.4-1.4c0.3-0.3,0.7-0.5,1.1-0.5c0.4,0,0.8,0.1,1,0.4
				c0.2,0.3,0.4,0.7,0.4,1.2c0,0.1,0,0.2,0,0.3c0,0.1,0,0.1,0,0.1H60c0,0.4,0.1,0.7,0.2,0.9s0.3,0.3,0.6,0.3c0.2,0,0.3,0,0.4-0.1
				c0.1-0.1,0.2-0.1,0.3-0.2c0.1-0.1,0.1-0.1,0.1-0.1l0.3,0.2c0,0,0,0.1-0.1,0.2c-0.1,0.1-0.2,0.2-0.4,0.3c-0.2,0.1-0.4,0.2-0.7,0.2
				C60.2,139.4,59.8,139.3,59.5,139z M61.1,137.4v-0.2c0-0.4,0-0.6-0.1-0.7s-0.2-0.2-0.4-0.2c-0.1,0-0.2,0-0.3,0.1
				c-0.1,0.1-0.1,0.2-0.2,0.3s-0.1,0.4-0.1,0.7H61.1z"/>
			<path class="st10" d="M62.6,135.9h0.7l0.2,0.6h0c0,0,0-0.1,0.1-0.2c0-0.1,0.1-0.2,0.2-0.3c0.1-0.1,0.2-0.1,0.4-0.1
				c0.1,0,0.2,0,0.3,0c0.1,0,0.2,0,0.2,0.1l-0.1,0.7c0,0-0.1,0-0.2-0.1c-0.1,0-0.2,0-0.3,0c-0.1,0-0.2,0-0.3,0.1
				c-0.1,0.1-0.1,0.1-0.2,0.2s0,0.1,0,0.1v2.5h-0.9V135.9z"/>
			<path class="st10" d="M65.1,135.9h0.7l0.1,0.3h0c0,0,0,0,0.1-0.1c0.1-0.1,0.2-0.1,0.3-0.2c0.1-0.1,0.3-0.1,0.5-0.1
				c0.4,0,0.6,0.1,0.8,0.3s0.3,0.5,0.3,0.9v2.4h-0.9v-2.2c0-0.3,0-0.5-0.1-0.6c-0.1-0.1-0.2-0.2-0.4-0.2c-0.1,0-0.2,0-0.3,0.1
				c-0.1,0-0.2,0.1-0.2,0.1c-0.1,0-0.1,0.1-0.1,0.1v2.7h-0.9V135.9z"/>
			<path class="st10" d="M69.1,139c-0.3-0.3-0.4-0.7-0.4-1.3c0-0.6,0.1-1.1,0.4-1.4c0.3-0.3,0.7-0.5,1.1-0.5c0.4,0,0.8,0.1,1,0.4
				c0.2,0.3,0.4,0.7,0.4,1.2c0,0.1,0,0.2,0,0.3c0,0.1,0,0.1,0,0.1h-1.9c0,0.4,0.1,0.7,0.2,0.9s0.3,0.3,0.6,0.3c0.2,0,0.3,0,0.4-0.1
				c0.1-0.1,0.2-0.1,0.3-0.2c0.1-0.1,0.1-0.1,0.1-0.1l0.3,0.2c0,0,0,0.1-0.1,0.2c-0.1,0.1-0.2,0.2-0.4,0.3c-0.2,0.1-0.4,0.2-0.7,0.2
				C69.8,139.4,69.3,139.3,69.1,139z M70.7,137.4v-0.2c0-0.4,0-0.6-0.1-0.7s-0.2-0.2-0.4-0.2c-0.1,0-0.2,0-0.3,0.1
				c-0.1,0.1-0.1,0.2-0.2,0.3s-0.1,0.4-0.1,0.7H70.7z"/>
			<path class="st10" d="M72.5,139.2c-0.2-0.2-0.2-0.4-0.2-0.8v-2H72V136l0.3-0.1l0.4-1.2h0.5v1.2H74v0.5h-0.8v1.7
				c0,0.2,0,0.4,0,0.5s0.1,0.2,0.1,0.2c0,0,0.1,0.1,0.2,0.1c0.1,0,0.2,0,0.3,0s0.1,0,0.1,0l0.1,0.4c0,0,0,0-0.1,0s-0.1,0.1-0.2,0.1
				c-0.1,0-0.2,0-0.4,0C72.9,139.4,72.7,139.4,72.5,139.2z"/>
			<path class="st10" d="M74.8,139c-0.3-0.3-0.4-0.8-0.4-1.4s0.1-1,0.4-1.4s0.7-0.5,1.2-0.5c0.5,0,0.9,0.2,1.2,0.5s0.4,0.8,0.4,1.4
				c0,0.6-0.1,1-0.4,1.3c-0.3,0.3-0.7,0.5-1.2,0.5C75.5,139.4,75.1,139.3,74.8,139z M76.4,138.8c0.1-0.1,0.2-0.2,0.2-0.4
				c0-0.2,0.1-0.5,0.1-0.8s0-0.6-0.1-0.8c0-0.2-0.1-0.3-0.2-0.4s-0.2-0.1-0.4-0.1c-0.2,0-0.3,0-0.4,0.1c-0.1,0.1-0.2,0.2-0.2,0.4
				c0,0.2-0.1,0.5-0.1,0.8c0,0.3,0,0.6,0.1,0.8s0.1,0.3,0.2,0.4c0.1,0.1,0.2,0.1,0.4,0.1C76.2,139,76.3,138.9,76.4,138.8z"/>
			<path class="st10" d="M78.9,139.4l-1-3.5H79l0.5,2.3h0l0.7-2.3h0.6l0.7,2.3h0l0.6-2.3h0.6l-1,3.5H81l-0.6-2.3v0h0l-0.7,2.3H78.9z
				"/>
			<path class="st10" d="M83.3,139.2c-0.2-0.2-0.3-0.4-0.3-0.7c0-0.4,0.2-0.7,0.6-0.9s0.8-0.3,1.3-0.3v-0.2c0-0.3,0-0.5-0.1-0.7
				s-0.2-0.2-0.4-0.2c-0.1,0-0.2,0-0.3,0.1c-0.1,0-0.2,0.1-0.3,0.1s-0.2,0.1-0.2,0.1l-0.1-0.4c0,0,0.1,0,0.2-0.1
				c0.1,0,0.2-0.1,0.4-0.1s0.3-0.1,0.5-0.1c0.4,0,0.8,0.1,1,0.3c0.2,0.2,0.3,0.5,0.3,0.9v1.6c0,0.2,0,0.4,0.1,0.4c0,0,0.1,0,0.1,0
				s0.1,0,0.1,0l0,0.4c0,0-0.1,0-0.2,0s-0.2,0-0.3,0.1s-0.2,0-0.3,0c-0.1,0-0.2,0-0.3-0.1S85,139.2,85,139h0c0,0,0,0.1-0.1,0.1
				c-0.1,0.1-0.2,0.1-0.3,0.2c-0.1,0.1-0.3,0.1-0.5,0.1C83.7,139.4,83.5,139.4,83.3,139.2z M84.7,138.9c0.1-0.1,0.1-0.1,0.2-0.2
				c0-0.1,0.1-0.1,0.1-0.1v-0.9c-0.3,0-0.5,0.1-0.7,0.2c-0.2,0.1-0.2,0.3-0.2,0.5c0,0.2,0,0.3,0.1,0.4c0.1,0.1,0.2,0.1,0.3,0.1
				C84.5,139,84.6,138.9,84.7,138.9z"/>
			<path class="st10" d="M89.8,139.4c-0.1-0.1-0.2-0.1-0.3-0.2c-0.1-0.1-0.1-0.1-0.1-0.1h0l-0.2,0.2h-0.6v-5.2l0.9-0.1v2h0
				c0,0,0,0,0.1-0.1c0.1-0.1,0.2-0.1,0.3-0.2s0.3-0.1,0.5-0.1c0.3,0,0.5,0.1,0.7,0.2s0.4,0.4,0.5,0.6c0.1,0.3,0.2,0.6,0.2,0.9
				c0,0.6-0.1,1-0.4,1.4c-0.3,0.4-0.6,0.5-1.1,0.5C90.1,139.5,90,139.4,89.8,139.4z M90.6,138.6c0.1-0.2,0.2-0.6,0.2-1.1
				c0-0.3,0-0.6-0.1-0.8c0-0.2-0.1-0.3-0.2-0.4c-0.1-0.1-0.2-0.1-0.4-0.1c-0.1,0-0.2,0-0.3,0.1s-0.2,0.1-0.2,0.2
				c0,0.1-0.1,0.1-0.1,0.1v2c0,0,0,0,0.1,0.1s0.1,0.1,0.2,0.1c0.1,0,0.2,0.1,0.3,0.1C90.3,138.9,90.5,138.8,90.6,138.6z"/>
			<path class="st10" d="M92.5,139.2c-0.2-0.2-0.3-0.4-0.3-0.7c0-0.4,0.2-0.7,0.6-0.9c0.4-0.2,0.8-0.3,1.3-0.3v-0.2
				c0-0.3,0-0.5-0.1-0.7s-0.2-0.2-0.4-0.2c-0.1,0-0.2,0-0.3,0.1s-0.2,0.1-0.3,0.1c-0.1,0-0.2,0.1-0.2,0.1l-0.1-0.4
				c0,0,0.1,0,0.2-0.1c0.1,0,0.2-0.1,0.4-0.1s0.3-0.1,0.5-0.1c0.4,0,0.8,0.1,1,0.3c0.2,0.2,0.3,0.5,0.3,0.9v1.6c0,0.2,0,0.4,0.1,0.4
				c0,0,0.1,0,0.1,0c0.1,0,0.1,0,0.1,0l0,0.4c0,0-0.1,0-0.2,0c-0.1,0-0.2,0-0.3,0.1s-0.2,0-0.3,0c-0.1,0-0.2,0-0.3-0.1
				c-0.1-0.1-0.1-0.2-0.1-0.3h0c0,0,0,0.1-0.1,0.1c-0.1,0.1-0.2,0.1-0.3,0.2c-0.1,0.1-0.3,0.1-0.5,0.1
				C92.9,139.4,92.7,139.4,92.5,139.2z M93.8,138.9c0.1-0.1,0.1-0.1,0.2-0.2c0-0.1,0.1-0.1,0.1-0.1v-0.9c-0.3,0-0.5,0.1-0.7,0.2
				s-0.2,0.3-0.2,0.5c0,0.2,0,0.3,0.1,0.4c0.1,0.1,0.2,0.1,0.3,0.1C93.7,139,93.8,138.9,93.8,138.9z"/>
			<path class="st10" d="M95.8,139.4v-0.4l1.6-2.6h-1.5l0-0.5h2.6v0.4l-1.6,2.6h1.5l0,0.5H95.8z"/>
			<path class="st10" d="M99.1,139.2c-0.2-0.2-0.3-0.4-0.3-0.7c0-0.4,0.2-0.7,0.6-0.9c0.4-0.2,0.8-0.3,1.3-0.3v-0.2
				c0-0.3,0-0.5-0.1-0.7s-0.2-0.2-0.4-0.2c-0.1,0-0.2,0-0.3,0.1s-0.2,0.1-0.3,0.1c-0.1,0-0.2,0.1-0.2,0.1l-0.1-0.4
				c0,0,0.1,0,0.2-0.1c0.1,0,0.2-0.1,0.4-0.1s0.3-0.1,0.5-0.1c0.4,0,0.8,0.1,1,0.3c0.2,0.2,0.3,0.5,0.3,0.9v1.6c0,0.2,0,0.4,0.1,0.4
				c0,0,0.1,0,0.1,0c0.1,0,0.1,0,0.1,0l0,0.4c0,0-0.1,0-0.2,0c-0.1,0-0.2,0-0.3,0.1s-0.2,0-0.3,0c-0.1,0-0.2,0-0.3-0.1
				c-0.1-0.1-0.1-0.2-0.1-0.3h0c0,0,0,0.1-0.1,0.1c-0.1,0.1-0.2,0.1-0.3,0.2c-0.1,0.1-0.3,0.1-0.5,0.1
				C99.6,139.4,99.3,139.4,99.1,139.2z M100.5,138.9c0.1-0.1,0.1-0.1,0.2-0.2c0-0.1,0.1-0.1,0.1-0.1v-0.9c-0.3,0-0.5,0.1-0.7,0.2
				s-0.2,0.3-0.2,0.5c0,0.2,0,0.3,0.1,0.4c0.1,0.1,0.2,0.1,0.3,0.1C100.3,139,100.4,138.9,100.5,138.9z"/>
			<path class="st10" d="M104.4,139.4v-5.2l0.9-0.1v5.3H104.4z"/>
			<path class="st10" d="M106.4,139c-0.3-0.3-0.4-0.7-0.4-1.3c0-0.6,0.1-1.1,0.4-1.4c0.3-0.3,0.7-0.5,1.1-0.5c0.4,0,0.8,0.1,1,0.4
				c0.2,0.3,0.4,0.7,0.4,1.2c0,0.1,0,0.2,0,0.3c0,0.1,0,0.1,0,0.1H107c0,0.4,0.1,0.7,0.2,0.9s0.3,0.3,0.6,0.3c0.2,0,0.3,0,0.4-0.1
				c0.1-0.1,0.2-0.1,0.3-0.2c0.1-0.1,0.1-0.1,0.1-0.1l0.3,0.2c0,0,0,0.1-0.1,0.2c-0.1,0.1-0.2,0.2-0.4,0.3s-0.4,0.2-0.7,0.2
				C107.1,139.4,106.7,139.3,106.4,139z M108,137.4v-0.2c0-0.4,0-0.6-0.1-0.7c-0.1-0.1-0.2-0.2-0.4-0.2c-0.1,0-0.2,0-0.3,0.1
				c-0.1,0.1-0.1,0.2-0.2,0.3s-0.1,0.4-0.1,0.7H108z"/>
			<path class="st10" d="M109.5,139.4v-5.2l0.9-0.1v3.3l0.5-0.3l0.7-1.2h0.6l-0.9,1.3l1.1,2.2h-1.1l-0.8-1.6l-0.2,0.1v1.5H109.5z"/>
			<path class="st10" d="M113.1,139c-0.3-0.3-0.4-0.8-0.4-1.4s0.1-1,0.4-1.4s0.7-0.5,1.2-0.5c0.5,0,0.9,0.2,1.2,0.5s0.4,0.8,0.4,1.4
				c0,0.6-0.1,1-0.4,1.3c-0.3,0.3-0.7,0.5-1.2,0.5C113.8,139.4,113.4,139.3,113.1,139z M114.7,138.8c0.1-0.1,0.2-0.2,0.2-0.4
				c0-0.2,0.1-0.5,0.1-0.8s0-0.6-0.1-0.8c0-0.2-0.1-0.3-0.2-0.4s-0.2-0.1-0.4-0.1c-0.2,0-0.3,0-0.4,0.1c-0.1,0.1-0.2,0.2-0.2,0.4
				c0,0.2-0.1,0.5-0.1,0.8c0,0.3,0,0.6,0.1,0.8s0.1,0.3,0.2,0.4c0.1,0.1,0.2,0.1,0.4,0.1C114.5,139,114.6,138.9,114.7,138.8z
				 M114.3,135.4l-0.4-0.1l0.5-1.1l0.8,0.2L114.3,135.4z"/>
			<path class="st10" d="M117.2,139.4l-1-3.5h1.1l0.5,2.3h0l0.7-2.3h0.6l0.7,2.3h0l0.6-2.3h0.6l-1,3.5h-0.7l-0.6-2.3v0h0l-0.7,2.3
				H117.2z"/>
		</g>
	</g>
</g>
</svg>
