<svg id="iconfinder_Comments_1737374" xmlns="http://www.w3.org/2000/svg" width="22.5" height="19.564" viewBox="0 0 22.5 19.564">
  <path id="Path_273" data-name="Path 273" d="M163.169,151.566h8.94a.447.447,0,1,0,0-.895h-8.94a.447.447,0,0,0,0,.895Z" transform="translate(-156.849 -146.96)" fill="#81badf"/>
  <path id="Path_274" data-name="Path 274" d="M203.806,203.362h-8.378a.447.447,0,0,0,0,.894h8.378a.447.447,0,0,0,0-.894Z" transform="translate(-187.248 -196.614)" fill="#81badf"/>
  <path id="Path_275" data-name="Path 275" d="M171.021,256.052h-7.852a.447.447,0,1,0,0,.894h7.852a.447.447,0,1,0,0-.894Z" transform="translate(-156.849 -246.267)" fill="#81badf"/>
  <path id="Path_276" data-name="Path 276" d="M80.186,86.288H63.958a3.028,3.028,0,0,0-3.136,2.9v8.924a3.028,3.028,0,0,0,3.136,2.9h9.57l6.906,4.841V101a3.007,3.007,0,0,0,2.888-2.891V89.188A3.028,3.028,0,0,0,80.186,86.288Zm1.794,11.824a1.691,1.691,0,0,1-1.794,1.558H79.092v3.6l-5.141-3.6H63.958a1.691,1.691,0,0,1-1.794-1.558V89.188a1.691,1.691,0,0,1,1.794-1.558H80.186a1.691,1.691,0,0,1,1.794,1.558Z" transform="translate(-60.822 -86.288)" fill="#81badf"/>
</svg>
