<svg xmlns="http://www.w3.org/2000/svg" width="48" height="55.167" viewBox="0 0 48 55.167">
  <g id="Group_10" data-name="Group 10" transform="translate(-443 -32)">
    <path id="Path_278" data-name="Path 278" d="M513.683,92.95a4.832,4.832,0,1,1-4.833-4.83A4.833,4.833,0,0,1,513.683,92.95Z" transform="translate(-40.68 -37.413)" fill="#81badf"/>
    <path id="Path_279" data-name="Path 279" d="M506.543,72.987a7.928,7.928,0,0,0-.5-2.69,4.808,4.808,0,0,0-2.75-2.753,8.038,8.038,0,0,0-2.69-.5c-1.53-.07-1.99-.087-5.86-.087s-4.327.017-5.857.087a8.084,8.084,0,0,0-2.693.5,4.808,4.808,0,0,0-2.75,2.753,8.1,8.1,0,0,0-.5,2.69c-.07,1.53-.083,1.987-.083,5.857s.013,4.33.083,5.86a8.1,8.1,0,0,0,.5,2.69,4.808,4.808,0,0,0,2.75,2.753,8.084,8.084,0,0,0,2.693.5c1.527.07,1.987.087,5.857.087s4.33-.017,5.86-.087a8.038,8.038,0,0,0,2.69-.5,4.808,4.808,0,0,0,2.75-2.753,7.928,7.928,0,0,0,.5-2.69c.07-1.53.083-1.987.083-5.86S506.613,74.517,506.543,72.987Zm-11.8,13.3a7.445,7.445,0,1,1,7.443-7.447A7.445,7.445,0,0,1,494.743,86.29Zm7.74-13.443a1.74,1.74,0,1,1,1.737-1.74A1.739,1.739,0,0,1,502.483,72.847Z" transform="translate(-26.573 -23.307)" fill="#81badf"/>
    <path id="Path_280" data-name="Path 280" d="M467,32a24,24,0,0,0-12.95,44.21L446.5,87.167l11.23-9.023A24,24,0,1,0,467,32Zm15.58,29.513a10.687,10.687,0,0,1-.673,3.52,7.431,7.431,0,0,1-4.24,4.24,10.687,10.687,0,0,1-3.52.673c-1.547.07-2.04.087-5.977.087s-4.43-.017-5.977-.087a10.647,10.647,0,0,1-3.517-.673,7.406,7.406,0,0,1-4.24-4.24,10.6,10.6,0,0,1-.673-3.52c-.073-1.543-.09-2.037-.09-5.977s.017-4.43.09-5.977a10.579,10.579,0,0,1,.673-3.517,7.406,7.406,0,0,1,4.24-4.24,10.562,10.562,0,0,1,3.517-.673c1.547-.07,2.04-.087,5.977-.087s4.43.017,5.977.087a10.6,10.6,0,0,1,3.52.673,7.431,7.431,0,0,1,4.24,4.24,10.665,10.665,0,0,1,.673,3.517c.07,1.547.087,2.04.087,5.977S482.65,59.97,482.58,61.513Z" fill="#81badf"/>
  </g>
</svg>
