<?xml version="1.0" encoding="utf-8"?>
<!-- Generator: Adobe Illustrator 24.3.0, SVG Export Plug-In . SVG Version: 6.00 Build 0)  -->
<svg version="1.1" id="Group_27" xmlns="http://www.w3.org/2000/svg" xmlns:xlink="http://www.w3.org/1999/xlink" x="0px" y="0px"
	 viewBox="0 0 25 28.2" style="enable-background:new 0 0 25 28.2;" xml:space="preserve">
<style type="text/css">
	.st0{fill:#FFFFFF;}
	.st1{fill:none;}
</style>
<path class="st0" d="M22.7,11.6c0,5.5-3.4,9.8-8.2,9.8c-1.4,0-2.8-0.6-3.6-1.8c0,0-0.8,3-1,3.8c-0.5,1.5-1.1,2.8-2,4.1h0
	c-0.4-0.1-0.7-0.2-1.1-0.4c-0.2-1.5-0.2-3,0.1-4.5c0.3-1.2,1.9-7.8,1.9-7.8c-0.3-0.7-0.5-1.5-0.5-2.4c0-2.2,1.3-3.8,2.9-3.8
	c1.1,0,2,0.9,2,2c0,0.1,0,0.2,0,0.3c0,1.4-0.9,3.4-1.3,5.3c-0.3,1.2,0.4,2.5,1.7,2.8c0.2,0.1,0.5,0.1,0.7,0.1c2.8,0,5-3,5-7.2
	c0.1-3.5-2.6-6.3-6-6.4c-0.2,0-0.4,0-0.6,0c-3.8-0.2-7,2.8-7.1,6.5c0,0.1,0,0.2,0,0.3c0,1.3,0.4,2.5,1.2,3.6
	c0.1,0.1,0.1,0.3,0.1,0.5c-0.1,0.5-0.4,1.6-0.4,1.8c-0.1,0.3-0.2,0.3-0.5,0.2c-2-0.9-3.2-3.8-3.2-6.1c0-5,3.6-9.6,10.4-9.6
	C18.5,2.5,22.7,6.4,22.7,11.6z"/>
<line class="st1" x1="8" y1="27.5" x2="8" y2="27.5"/>
</svg>
