<svg xmlns="http://www.w3.org/2000/svg" width="48" height="55.167" viewBox="0 0 48 55.167">
  <g id="Group_13" data-name="Group 13" transform="translate(-451 -416)">
    <path id="Path_289" data-name="Path 289" d="M475,416a24,24,0,0,0-12.95,44.21l-7.55,10.957,11.23-9.023A24,24,0,1,0,475,416Zm3.45,28.523a4.93,4.93,0,0,1-2.91-.923l-.083.09c-.66,1.727-1.83,4.753-2.24,5.607a4.685,4.685,0,0,1-1.587,1.623.45.45,0,0,1-.257.08.463.463,0,0,1-.357-.17,3.153,3.153,0,0,1-.717-1.89,2.143,2.143,0,0,1,.03-.337l2.28-9.417a5.429,5.429,0,0,1-.487-1.787c0,.02,0,.04.007.063a2.682,2.682,0,0,1,2.9-2.67,2.84,2.84,0,0,1,1.98.56,1.481,1.481,0,0,1,.437,1.087,6.5,6.5,0,0,1-1.463,3.69,1.266,1.266,0,0,0,.02.21c-.01,0-.013.013-.02.02a1.84,1.84,0,0,0,1.98,1.847c1.683,0,3.6-2.723,3.6-5.107a.591.591,0,0,0,0-.077c0-.053,0-.1,0-.157a4.853,4.853,0,0,0-5.147-4.623c-3.737,0-5.97,1.9-5.97,5.087a3.046,3.046,0,0,0,.943,2.147.407.407,0,0,1,.11.2c0,.007,0,.013,0,.023l-.767,2.543a.46.46,0,0,1-.647.28,7.554,7.554,0,0,1-3.33-5.69c.123-3.57,2.72-7.607,9.74-7.607,6.77,0,8.687,4.73,8.767,7.673C485.18,440.477,483.367,444.523,478.45,444.523Z" fill="#81badf"/>
    <g id="Group_12" data-name="Group 12" transform="translate(466.743 429)">
      <path id="Path_290" data-name="Path 290" d="M519.247,472.243a1.608,1.608,0,0,1,.44,1.257.4.4,0,0,1,0,.06,1.481,1.481,0,0,0-.437-1.087,2.84,2.84,0,0,0-1.98-.56,2.682,2.682,0,0,0-2.9,2.67c0-.023,0-.043-.007-.063a.366.366,0,0,1,0-.06,2.7,2.7,0,0,1,2.907-2.78A2.839,2.839,0,0,1,519.247,472.243Z" transform="translate(-508.983 -466.12)" fill="#81badf"/>
      <path id="Path_291" data-name="Path 291" d="M526.783,483.74a2.059,2.059,0,0,0,.96.273c.057,0,.117.007.177.007a2.142,2.142,0,0,0,1.117-.36c.053-.03.1-.067.157-.1a4.363,4.363,0,0,0,.607-.523c.05-.05.1-.1.143-.157a5.793,5.793,0,0,0,.687-.947,1.619,1.619,0,0,0,.087-.15,6.572,6.572,0,0,0,.647-1.63c.02-.073.037-.147.05-.223a1.646,1.646,0,0,0,.04-.223,3.331,3.331,0,0,0,.053-.447,1.143,1.143,0,0,0,.013-.187.6.6,0,0,1,0,.077c0,2.383-1.92,5.107-3.6,5.107a1.84,1.84,0,0,1-1.98-1.847c.007-.007.01-.017.02-.02a.95.95,0,0,0,.03.173,1.952,1.952,0,0,0,.123.393c.013.03.027.057.04.087s.027.053.043.083.033.057.05.083.033.053.053.08a1.56,1.56,0,0,0,.21.247c.027.023.053.05.083.073s.067.05.1.077S526.753,483.723,526.783,483.74Z" transform="translate(-516.703 -471.047)" fill="#81badf"/>
      <path id="Path_292" data-name="Path 292" d="M516.757,462.877c0,3.633-1.787,7.877-6.82,7.877a4.941,4.941,0,0,1-2.91-.92l-.083.087c-.66,1.73-1.83,4.757-2.24,5.607a4.728,4.728,0,0,1-1.587,1.627.446.446,0,0,1-.257.077.453.453,0,0,1-.357-.17,3.553,3.553,0,0,1-.293-.42c-.053-.093-.1-.187-.143-.277v0a3.1,3.1,0,0,1-.217-.667c-.017-.077-.03-.153-.04-.227a3.006,3.006,0,0,1-.023-.527,3.153,3.153,0,0,0,.717,1.89.463.463,0,0,0,.357.17.45.45,0,0,0,.257-.08A4.685,4.685,0,0,0,504.7,475.3c.41-.853,1.58-3.88,2.24-5.607l.083-.09a4.93,4.93,0,0,0,2.91.923c4.917,0,6.73-4.047,6.81-7.62-.08-2.943-2-7.673-8.767-7.673-7.02,0-9.617,4.037-9.74,7.607a7.554,7.554,0,0,0,3.33,5.69.46.46,0,0,0,.647-.28l.767-2.543c0-.01,0-.017,0-.023,0,.02.01.04.013.06a.363.363,0,0,1,0,.12c-.007.023-.01.047-.017.07l-.767,2.543a.389.389,0,0,1-.1.173.452.452,0,0,1-.55.11,3.275,3.275,0,0,1-.477-.3c-.13-.1-.263-.21-.4-.337-.09-.087-.183-.177-.277-.27a7.616,7.616,0,0,1-2.187-4.967v0c0-3.633,2.553-7.877,9.75-7.877C514.907,455,516.757,459.95,516.757,462.877Z" transform="translate(-498.23 -455)" fill="#81badf"/>
      <path id="Path_293" data-name="Path 293" d="M531.523,479.08c0,2.383-1.92,5.107-3.6,5.107a1.84,1.84,0,0,1-1.98-1.847c.007-.007.01-.017.02-.02.007.05.017.107.03.173a1.952,1.952,0,0,0,.123.393.5.5,0,0,0,.04.087c.013.027.027.057.043.083s.033.057.05.083a.372.372,0,0,0,.053.08,1.558,1.558,0,0,0,.21.247.868.868,0,0,0,.083.073c.033.027.067.05.1.077s.06.04.09.057a2.059,2.059,0,0,0,.96.273c.057,0,.117.007.177.007a2.142,2.142,0,0,0,1.117-.36c.053-.03.1-.067.157-.1a4.363,4.363,0,0,0,.607-.523c.05-.05.1-.1.143-.157a5.8,5.8,0,0,0,.687-.947c.03-.05.06-.1.087-.15a5.851,5.851,0,0,0,.363-.757,6.667,6.667,0,0,0,.283-.873c.017-.073.033-.15.05-.223s.027-.15.04-.223c.023-.15.04-.3.053-.447l.01-.22c0,.01,0,.023,0,.033A.6.6,0,0,1,531.523,479.08Z" transform="translate(-516.703 -470.98)" fill="#81badf" opacity="0.2" style="isolation: isolate"/>
      <path id="Path_294" data-name="Path 294" d="M519.687,473.5a.4.4,0,0,1,0,.06,1.481,1.481,0,0,0-.437-1.087,2.84,2.84,0,0,0-1.98-.56,2.682,2.682,0,0,0-2.9,2.67c0-.023,0-.043-.007-.063a.366.366,0,0,1,0-.06,2.7,2.7,0,0,1,2.907-2.78,2.839,2.839,0,0,1,1.98.563A1.608,1.608,0,0,1,519.687,473.5Z" transform="translate(-508.983 -466.12)" fill="#81badf" opacity="0.2" style="isolation: isolate"/>
      <path id="Path_295" data-name="Path 295" d="M516.757,462.877c0,.043,0,.087-.007.13,0-.033,0-.067,0-.1-.08-2.943-2-7.673-8.767-7.673-7.02,0-9.617,4.037-9.74,7.607,0,.037,0,.077,0,.113,0-.023-.007-.043-.007-.07v0c0-3.633,2.553-7.877,9.75-7.877C514.907,455,516.757,459.95,516.757,462.877Z" transform="translate(-498.23 -455)" fill="#81badf" opacity="0.2" style="isolation: isolate"/>
      <path id="Path_296" data-name="Path 296" d="M503,481.187a.363.363,0,0,1,0,.12c-.007.023-.01.047-.017.07l-.767,2.543a.389.389,0,0,1-.1.173.422.422,0,0,1-.16.123.469.469,0,0,1-.39-.01,3.05,3.05,0,0,1-.477-.307,4.872,4.872,0,0,1-.4-.337c-.09-.087-.183-.177-.277-.27a7.616,7.616,0,0,1-2.187-4.967v0c0-.053.007-.1.007-.153,0,.037,0,.077,0,.113a7.554,7.554,0,0,0,3.33,5.69.46.46,0,0,0,.647-.28l.767-2.543c0-.01,0-.017,0-.023C502.99,481.147,503,481.167,503,481.187Z" transform="translate(-498.23 -470.447)" fill="#81badf" opacity="0.1" style="isolation: isolate"/>
      <path id="Path_297" data-name="Path 297" d="M523.864,478.43c0,3.633-1.787,7.877-6.82,7.877a4.941,4.941,0,0,1-2.91-.92l-.083.087c-.66,1.73-1.83,4.757-2.24,5.607a4.728,4.728,0,0,1-1.587,1.627.446.446,0,0,1-.257.077.453.453,0,0,1-.357-.17,3.553,3.553,0,0,1-.293-.42c-.053-.093-.1-.187-.143-.277v0a2.922,2.922,0,0,1-.217-.667c-.017-.077-.03-.153-.04-.227a3.006,3.006,0,0,1-.023-.527,3.153,3.153,0,0,0,.717,1.89.463.463,0,0,0,.357.17.45.45,0,0,0,.257-.08,4.685,4.685,0,0,0,1.587-1.623c.41-.853,1.58-3.88,2.24-5.607l.083-.09a4.93,4.93,0,0,0,2.91.923c4.917,0,6.73-4.047,6.81-7.62,0-.043,0-.083,0-.127C523.861,478.363,523.864,478.4,523.864,478.43Z" transform="translate(-505.337 -470.553)" fill="#81badf" opacity="0.1" style="isolation: isolate"/>
      <path id="Path_298" data-name="Path 298" d="M519.247,472.243a1.608,1.608,0,0,1,.44,1.257.4.4,0,0,1,0,.06,1.481,1.481,0,0,0-.437-1.087,2.84,2.84,0,0,0-1.98-.56,2.682,2.682,0,0,0-2.9,2.67c0-.023,0-.043-.007-.063a.366.366,0,0,1,0-.06,2.7,2.7,0,0,1,2.907-2.78A2.839,2.839,0,0,1,519.247,472.243Z" transform="translate(-508.983 -466.12)" fill="#81badf"/>
      <path id="Path_299" data-name="Path 299" d="M526.783,483.74a2.059,2.059,0,0,0,.96.273c.057,0,.117.007.177.007a2.142,2.142,0,0,0,1.117-.36c.053-.03.1-.067.157-.1a4.363,4.363,0,0,0,.607-.523c.05-.05.1-.1.143-.157a5.793,5.793,0,0,0,.687-.947,1.619,1.619,0,0,0,.087-.15,6.572,6.572,0,0,0,.647-1.63c.02-.073.037-.147.05-.223a1.646,1.646,0,0,0,.04-.223,3.331,3.331,0,0,0,.053-.447,1.143,1.143,0,0,0,.013-.187.6.6,0,0,1,0,.077c0,2.383-1.92,5.107-3.6,5.107a1.84,1.84,0,0,1-1.98-1.847c.007-.007.01-.017.02-.02a.95.95,0,0,0,.03.173,1.952,1.952,0,0,0,.123.393c.013.03.027.057.04.087s.027.053.043.083.033.057.05.083.033.053.053.08a1.56,1.56,0,0,0,.21.247c.027.023.053.05.083.073s.067.05.1.077S526.753,483.723,526.783,483.74Z" transform="translate(-516.703 -471.047)" fill="#81badf"/>
      <path id="Path_300" data-name="Path 300" d="M516.757,462.877c0,3.633-1.787,7.877-6.82,7.877a4.941,4.941,0,0,1-2.91-.92l-.083.087c-.66,1.73-1.83,4.757-2.24,5.607a4.728,4.728,0,0,1-1.587,1.627.446.446,0,0,1-.257.077.453.453,0,0,1-.357-.17,3.553,3.553,0,0,1-.293-.42c-.053-.093-.1-.187-.143-.277v0a3.1,3.1,0,0,1-.217-.667c-.017-.077-.03-.153-.04-.227a3.006,3.006,0,0,1-.023-.527,3.153,3.153,0,0,0,.717,1.89.463.463,0,0,0,.357.17.45.45,0,0,0,.257-.08A4.685,4.685,0,0,0,504.7,475.3c.41-.853,1.58-3.88,2.24-5.607l.083-.09a4.93,4.93,0,0,0,2.91.923c4.917,0,6.73-4.047,6.81-7.62-.08-2.943-2-7.673-8.767-7.673-7.02,0-9.617,4.037-9.74,7.607a7.554,7.554,0,0,0,3.33,5.69.46.46,0,0,0,.647-.28l.767-2.543c0-.01,0-.017,0-.023,0,.02.01.04.013.06a.363.363,0,0,1,0,.12c-.007.023-.01.047-.017.07l-.767,2.543a.389.389,0,0,1-.1.173.452.452,0,0,1-.55.11,3.275,3.275,0,0,1-.477-.3c-.13-.1-.263-.21-.4-.337-.09-.087-.183-.177-.277-.27a7.616,7.616,0,0,1-2.187-4.967v0c0-3.633,2.553-7.877,9.75-7.877C514.907,455,516.757,459.95,516.757,462.877Z" transform="translate(-498.23 -455)" fill="#81badf"/>
    </g>
  </g>
</svg>
