<svg id="iconfinder_clock_1814097" xmlns="http://www.w3.org/2000/svg" width="22" height="22" viewBox="0 0 22 22">
  <g id="Icon-Clock" transform="translate(0 0)">
    <path id="Fill-131" d="M-358-396.9a11.029,11.029,0,0,1-11-11,11.029,11.029,0,0,1,11-11,11.029,11.029,0,0,1,11,11,10.968,10.968,0,0,1-11,11Zm0-20.847a9.809,9.809,0,0,0-9.8,9.8,9.84,9.84,0,0,0,9.8,9.8,9.84,9.84,0,0,0,9.8-9.8,9.809,9.809,0,0,0-9.8-9.8Z" transform="translate(369 418.9)" fill="#81badf"/>
    <path id="Fill-132" d="M-343.317-396.772l-4.083-4.083V-408.3h1.3v6.917l3.7,3.7-.913.913" transform="translate(357.775 413.392)" fill="#81badf"/>
  </g>
</svg>
