<svg id="Group_43" data-name="Group 43" xmlns="http://www.w3.org/2000/svg" width="30" height="30" viewBox="0 0 30 30">
  <g id="Group_42" data-name="Group 42">
    <path id="Path_315" data-name="Path 315" d="M15,0A15,15,0,1,0,30,15,15,15,0,0,0,15,0Zm9.692,11.951L13.934,22.71a.561.561,0,0,1-.8,0L11.547,21.1c-.219-.22-.577-.58-.795-.8l-3.7-3.89A.587.587,0,0,1,6.886,16a.553.553,0,0,1,.166-.393l1.621-1.461a.555.555,0,0,1,.795,0l3.67,3.744a.558.558,0,0,0,.8,0l8.374-8.351a.559.559,0,0,1,.8,0l1.59,1.606A.573.573,0,0,1,24.692,11.951Z" fill="#296b95"/>
  </g>
</svg>
