<svg xmlns="http://www.w3.org/2000/svg" width="40.882" height="33.023" viewBox="0 0 40.882 33.023">
  <g id="Group_40" data-name="Group 40" transform="translate(-243.248 -210.845)">
    <g id="Path_313" data-name="Path 313" transform="translate(0 0)" fill="#296b95">
      <path d="M 269.4432983398438 241.8630981445313 L 268.6130065917969 240.7603454589844 L 265.75048828125 236.9585266113281 L 264.9017333984375 235.8312683105469 L 265.9750671386719 234.915283203125 L 269.1791381835938 232.1808929443359 C 270.4047546386719 231.1326599121094 271.0011291503906 229.8988189697266 271.0011291503906 228.4099426269531 C 271.0011291503906 227.6553039550781 270.3960571289063 226.5718078613281 269.2973937988281 225.3590850830078 C 267.6506958007813 223.5459594726563 266.8150939941406 221.7845153808594 266.8150939941406 220.1250610351563 C 266.8150939941406 215.1080322265625 269.5477600097656 212.3450317382813 274.5097045898438 212.3450317382813 C 277.1570129394531 212.3450317382813 279.20703125 213.1531982421875 280.602783203125 214.7470550537109 C 281.9476013183594 216.2827758789063 282.6294860839844 218.5225219726563 282.6294860839844 221.4040832519531 C 282.6294860839844 229.4650726318359 278.5859069824219 236.1008453369141 270.6111145019531 241.1270751953125 L 269.4432983398438 241.8630981445313 Z M 249.8364868164063 241.8630981445313 L 249.0061950683594 240.7603454589844 L 246.1436614990234 236.9585266113281 L 245.294921875 235.8312683105469 L 246.3682403564453 234.915283203125 L 249.5723114013672 232.1808929443359 C 250.7979431152344 231.1326599121094 251.3943176269531 229.8988189697266 251.3943176269531 228.4099426269531 C 251.3943176269531 227.6537322998047 250.7894897460938 226.5704956054688 249.6912384033203 225.3597869873047 C 248.0451049804688 223.5473022460938 247.2101135253906 221.7858581542969 247.2101135253906 220.1250610351563 C 247.2101135253906 215.1080322265625 249.942138671875 212.3450317382813 254.9028930664063 212.3450317382813 C 257.5502319335938 212.3450317382813 259.6002197265625 213.1531982421875 260.9959716796875 214.7470550537109 C 262.3407897949219 216.2827758789063 263.0226745605469 218.5225219726563 263.0226745605469 221.4040832519531 C 263.0226745605469 229.465087890625 258.9790954589844 236.1008605957031 251.0042877197266 241.1270751953125 L 249.8364868164063 241.8630981445313 Z" stroke="none"/>
      <path d="M 254.9028930664063 213.8450317382813 C 250.7725524902344 213.8450317382813 248.7101135253906 215.9371185302734 248.7101135253906 220.1250610351563 C 248.7101135253906 221.4040832519531 249.40625 222.8149261474609 250.80224609375 224.3519897460938 C 252.1981811523438 225.890869140625 252.8943176269531 227.2422943115234 252.8943176269531 228.4099426269531 C 252.8943176269531 230.3461151123047 252.1109619140625 231.9834442138672 250.5460510253906 233.3218841552734 L 247.3419799804688 236.0562744140625 L 250.2044982910156 239.8580932617188 C 257.7505798339844 235.1020965576172 261.5226745605469 228.9501647949219 261.5226745605469 221.4040832519531 C 261.5226745605469 216.365966796875 259.3154602050781 213.8450317382813 254.9028930664063 213.8450317382813 M 274.5097045898438 213.8450317382813 C 270.3793640136719 213.8450317382813 268.3150939941406 215.9371185302734 268.3150939941406 220.1250610351563 C 268.3150939941406 221.4040832519531 269.0130615234375 222.8149261474609 270.4090576171875 224.3519897460938 C 271.8031921386719 225.890869140625 272.5011291503906 227.2422943115234 272.5011291503906 228.4099426269531 C 272.5011291503906 230.3461151123047 271.7177734375 231.9834442138672 270.1528625488281 233.3218841552734 L 266.9487915039063 236.0562744140625 L 269.8113098144531 239.8580932617188 C 277.3573608398438 235.1020965576172 281.1294860839844 228.9501647949219 281.1294860839844 221.4040832519531 C 281.1294860839844 216.365966796875 278.9222717285156 213.8450317382813 274.5097045898438 213.8450317382813 M 254.9028930664063 210.8450317382813 C 256.3669738769531 210.8450317382813 257.7004699707031 211.0701141357422 258.8663024902344 211.5140075683594 C 260.1528015136719 212.0038452148438 261.2489929199219 212.7591247558594 262.1244506835938 213.7588653564453 C 263.7157897949219 215.5760955810547 264.5226745605469 218.1483154296875 264.5226745605469 221.4040832519531 C 264.5226745605469 225.7214965820313 263.4218444824219 229.7055969238281 261.2507629394531 233.2457580566406 C 259.1304016113281 236.703125 255.9520874023438 239.78173828125 251.8040771484375 242.3960723876953 L 249.4684753417969 243.8681030273438 L 247.8078918457031 241.66259765625 L 244.9453430175781 237.8607788085938 L 243.2478637695313 235.6062774658203 L 245.39453125 233.7743072509766 L 248.5986022949219 231.0399169921875 C 249.4939270019531 230.2741394042969 249.8943176269531 229.4623718261719 249.8943176269531 228.4099426269531 C 249.8941650390625 228.4046325683594 249.843505859375 227.76025390625 248.5802307128906 226.3675994873047 C 246.6761779785156 224.2711334228516 245.7101135253906 222.1703796386719 245.7101135253906 220.1250610351563 C 245.7101135253906 217.2244262695313 246.5213928222656 214.930908203125 248.1214294433594 213.3082275390625 C 249.7330627441406 211.6737670898438 252.0146789550781 210.8450317382813 254.9028930664063 210.8450317382813 Z M 274.5097045898438 210.8450317382813 C 275.9738159179688 210.8450317382813 277.3073120117188 211.0701141357422 278.4731140136719 211.5140075683594 C 279.7595825195313 212.0038452148438 280.8558044433594 212.7591247558594 281.7312622070313 213.7588653564453 C 283.3226013183594 215.5760955810547 284.1294860839844 218.1483154296875 284.1294860839844 221.4040832519531 C 284.1294860839844 225.7214813232422 283.0286254882813 229.7055969238281 280.8575439453125 233.2457580566406 C 278.7372131347656 236.703125 275.5588989257813 239.78173828125 271.410888671875 242.3960571289063 L 269.0752868652344 243.8681182861328 L 267.4146728515625 241.66259765625 L 264.5521545410156 237.8607788085938 L 262.8546752929688 235.6062774658203 L 265.0013427734375 233.7743072509766 L 268.2053833007813 231.0399169921875 C 269.1007385253906 230.2741394042969 269.5011291503906 229.4623718261719 269.5011291503906 228.4099426269531 C 269.5009765625 228.4048156738281 269.4486083984375 227.7601623535156 268.1857604980469 226.3661651611328 C 266.2817687988281 224.2697906494141 265.3150939941406 222.1690368652344 265.3150939941406 220.1250610351563 C 265.3150939941406 217.2243347167969 266.1268615722656 214.9306488037109 267.7278137207031 213.3077392578125 C 269.33984375 211.6736145019531 271.6216125488281 210.8450317382813 274.5097045898438 210.8450317382813 Z" stroke="none" fill="#fff"/>
    </g>
  </g>
</svg>
