<svg xmlns="http://www.w3.org/2000/svg" width="16.4" height="14.31" viewBox="0 0 16.4 14.31">
  <path id="twitter_icon" d="M27.3,14.446a5.076,5.076,0,0,1-1.9.57,3.528,3.528,0,0,0,1.456-1.963,7.325,7.325,0,0,1-2.153.886A3.232,3.232,0,0,0,22.3,12.8a3.48,3.48,0,0,0-3.356,3.609,3.61,3.61,0,0,0,.063.823A9.268,9.268,0,0,1,12.1,13.5a3.436,3.436,0,0,0-.443,1.836,3.6,3.6,0,0,0,1.456,2.976,3.049,3.049,0,0,1-1.52-.443v.063a3.628,3.628,0,0,0,2.659,3.546,3.737,3.737,0,0,1-.886.127,2.154,2.154,0,0,1-.633-.063,3.292,3.292,0,0,0,3.1,2.469,6.466,6.466,0,0,1-4.116,1.52,3.9,3.9,0,0,1-.823-.063,9,9,0,0,0,5.129,1.646c6.142,0,9.5-5.446,9.5-10.194v-.443A7.565,7.565,0,0,0,27.3,14.446Z" transform="translate(-10.9 -12.8)" fill="#fff"/>
</svg>
