<?xml version="1.0" encoding="utf-8"?>
<!-- Generator: Adobe Illustrator 24.3.0, SVG Export Plug-In . SVG Version: 6.00 Build 0)  -->
<svg version="1.1" id="Warstwa_1" xmlns="http://www.w3.org/2000/svg" xmlns:xlink="http://www.w3.org/1999/xlink" x="0px" y="0px"
	 viewBox="0 0 587.5 151.9" style="enable-background:new 0 0 587.5 151.9;" xml:space="preserve">
<style type="text/css">
	.st0{fill:#296B95;}
	.st1{fill:#81BADF;}
	.st2{enable-background:new    ;}
	.st3{opacity:0.42;fill:none;stroke:#296B95;stroke-width:0.5;enable-background:new    ;}
</style>
<g id="Group_319" transform="translate(-339 -67)">
	<g id="Group_19" transform="translate(339 67)">
		<g id="Group_15" transform="translate(5.402 5.403)">
			<path id="Path_301" class="st0" d="M133.5,51.7H89.4V7.6C89.4,3.4,86,0,81.8,0H59.3c-4.2,0-7.6,3.4-7.6,7.6v37.3
				c1.6,1.6,3.7,2.7,5.9,3.2c0,0,0.1,0,0.1,0c1.2,0.4,2.3,1.1,3.2,2c1.7,1.5,3.4,3,5.7,3.7c0.8,0.3,0.9,1.1,1.5,1.6
				c0.4,0.4,0.8,0.8,1,1.3c0.3,0.5,1.3,0.7,0.8,1.3c-0.6,0.8-1.7,1-2.5,0.5c-0.8-0.5-1.6-1-2.2-1.6c-1-0.9-2.3-1.5-3.6-1.7
				c-1.4-0.3-1.9,0-2,1.5c-0.1,2.2,0.3,4.4,1.2,6.4c1,2.9,1.5,5.9,2.9,8.7c0.3,0.5,0.3,1.1,0.2,1.6c-0.1,0.5-0.5,0.8-0.9,0.9
				c-0.5,0.1-0.7-0.3-0.8-0.6c-0.4-0.9-1.2-1.4-2.2-1.4c-1.3-0.1-1.9-1.3-2.6-2.2c-0.4-0.6-0.9-1.1-1.5-1.5c-1.1-0.8-2-1.8-2.6-3.1
				c-0.7-1.3-1.5-2.6-2.2-4c-0.5-1.1-0.8-2.3-0.9-3.5c0-1.3-0.1-2.5-0.4-3.7c-0.2-0.7-0.5-1.4-1-2c-0.3-0.4-0.6-0.7-1-0.9H7.6
				c-4.2,0-7.6,3.4-7.6,7.6l0,0v22.6c0,4.2,3.4,7.6,7.6,7.6h44.1v44.1c0,4.2,3.4,7.6,7.6,7.6h22.6c4.2,0,7.6-3.4,7.6-7.6l0,0V97
				c-1.1-1-2.3-2-3.6-2.8c-2.3-1.5-4.1-3.5-5.4-5.9c-1.8-2.9-4.4-3.7-7.5-4c-0.7,0-1.5-0.1-2.2-0.4c-0.5-0.2-0.8-0.7-0.7-1.2
				c0.1-0.6,0.6-0.5,1-0.4c2.1,0.3,4.3-0.3,6.3,0.5c0.2,0.1,0.6,0.2,0.7-0.2c0-0.2-0.1-0.4-0.2-0.6c-1.5-2-3.2-3.6-5.8-4
				c-0.8-0.1-1.6-0.4-2.3-1c-0.4-0.3-0.5-0.9-0.3-1.4c0.2-0.5,0.8-0.4,1.1-0.3c2.7,0.9,5.6,1.1,7.9,2.9c-0.2-1.2-1-2.3-2-3
				c-0.9-0.5-1.8-1-2.8-1.3c-0.9-0.2-1.6-0.7-2.2-1.4c-0.4-0.4-0.4-1.1-0.1-1.6c0.3-0.6,0.8-0.1,1.2,0c3.4,0.7,6.4,2.5,8.6,5.1
				c-0.2-1.4-0.2-2.5-1-3.4c-0.8-1.2-1.7-2.3-2.7-3.3c-0.4-0.4-0.6-0.8-0.7-1.3c-0.1-0.5,0.1-1,0.5-1.2c0.3-0.2,0.8-0.2,1,0.1
				c2,1.9,4.1,3.6,5.3,6.2c0.8,1.8,1.5,3.8,3.2,5.2c0.3-1.3-0.3-2.3-0.7-3.4c-0.4-1-0.6-2.2-0.4-3.3c0.1-0.6,0.5-1,1.1-1.1
				c0.7-0.1,0.5,0.6,0.7,1c0.5,1.1,1,2.1,1.7,3c0.7,1,1.3,2.2,1.5,3.4c0.8,2.8,1.6,5.5,1.3,8.4c0,1.2,0.6,2.4,1.6,3h39.8
				c4.2,0,7.6-3.4,7.6-7.6V59.3C141.1,55.1,137.7,51.7,133.5,51.7z"/>
		</g>
		<g id="Group_18">
			<g id="Group_17">
				<g id="Group_16">
					<path id="Path_302" class="st1" d="M88.5,0.8c6.2,0,11.2,5,11.2,11.2v40.2h40.2c6.2,0,11.2,5,11.2,11.2v25.1
						c0,6.2-5,11.2-11.2,11.2H99.7v40.2c0,6.2-5,11.2-11.2,11.2H63.4c-6.2,0-11.2-5-11.2-11.2V99.7H12c-6.2,0-11.2-5-11.2-11.2V63.4
						c0-6.2,5-11.2,11.2-11.2l0,0h40.2V12c0-6.2,5-11.2,11.2-11.2H88.5 M88.5,0H63.4c-6.6,0-12,5.4-12,12v39.4H12
						c-6.6,0-12,5.4-12,12v25.1c0,6.6,5.4,12,12,12h39.4v39.4c0,6.6,5.4,12,12,12h25.1c6.6,0,12-5.4,12-12v-39.4h39.4
						c6.6,0,12-5.4,12-12V63.4c0-6.6-5.4-12-12-12h-39.4V12C100.5,5.4,95.1,0,88.5,0L88.5,0z"/>
				</g>
			</g>
		</g>
	</g>
	<g id="Group_283" transform="translate(0 24.992)">
		<g class="st2">
			<path class="st0" d="M582.8,128V98.2l-11.6,22.2h-4.9l-11.6-22.2V128h-8.8V82.6h9.5l13.4,25.9l13.6-25.9h9.4V128H582.8z"/>
			<path class="st0" d="M632.6,120.3v7.7h-31.6V82.6h31v7.7h-22.1v10.9h19.1v7.2h-19.1v11.8H632.6z"/>
			<path class="st0" d="M639.6,128V82.6h16.5c4.9,0,9.1,1,12.4,3c3.3,2,5.8,4.8,7.5,8.2c1.7,3.4,2.5,7.2,2.5,11.4
				c0,4.6-0.9,8.6-2.8,12c-1.8,3.4-4.4,6.1-7.8,7.9c-3.3,1.9-7.3,2.8-11.9,2.8H639.6z M669.6,105.2c0-2.9-0.5-5.5-1.6-7.8
				c-1.1-2.2-2.6-4-4.6-5.2c-2-1.3-4.4-1.9-7.3-1.9h-7.7v30h7.7c2.9,0,5.4-0.6,7.4-2c2-1.3,3.5-3.1,4.6-5.4
				C669.1,110.7,669.6,108.1,669.6,105.2z"/>
			<path class="st0" d="M685.4,128V82.6h8.8V128H685.4z"/>
			<path class="st0" d="M700.9,104.9c0-2.8,0.5-5.5,1.5-8.2c1-2.7,2.5-5.1,4.4-7.3s4.3-3.9,7-5.2c2.8-1.3,5.9-2,9.5-2
				c4.2,0,7.8,0.9,10.8,2.8c3.1,1.8,5.3,4.2,6.8,7.2l-6.8,4.7c-0.8-1.7-1.8-3.1-3-4.1c-1.2-1-2.6-1.7-4-2.1s-2.8-0.6-4.2-0.6
				c-2.2,0-4.2,0.4-5.8,1.3c-1.6,0.9-3,2.1-4.1,3.5c-1.1,1.5-1.9,3.1-2.5,4.9c-0.5,1.8-0.8,3.6-0.8,5.4c0,2,0.3,3.9,1,5.8
				c0.6,1.9,1.5,3.5,2.7,4.9c1.2,1.4,2.6,2.6,4.2,3.4c1.6,0.8,3.4,1.2,5.4,1.2c1.4,0,2.8-0.2,4.3-0.7c1.5-0.5,2.8-1.2,4-2.2
				c1.2-1,2.2-2.3,2.9-4l7.2,4.2c-0.9,2.3-2.4,4.2-4.4,5.8c-2,1.6-4.3,2.8-6.8,3.6c-2.5,0.8-5,1.2-7.5,1.2c-3.2,0-6.2-0.7-8.9-2
				c-2.7-1.3-5-3.1-6.9-5.4c-1.9-2.2-3.5-4.8-4.5-7.6C701.5,110.6,700.9,107.8,700.9,104.9z"/>
			<path class="st0" d="M747.6,128V82.6h8.8V128H747.6z"/>
			<path class="st0" d="M774.7,98.8V128h-8.8V82.6h7l23.5,30V82.6h8.8V128h-7.4L774.7,98.8z"/>
			<path class="st0" d="M834,128.3c-3.6,0-6.7-0.6-9.2-1.8c-2.5-1.2-4.6-2.9-6.1-5c-1.6-2.1-2.7-4.6-3.4-7.3
				c-0.7-2.7-1.1-5.5-1.1-8.5V82.6h8.8v23.2c0,1.9,0.2,3.7,0.5,5.5c0.4,1.8,1,3.4,1.8,4.8c0.9,1.4,2,2.5,3.4,3.3
				c1.4,0.8,3.2,1.2,5.2,1.2c2.1,0,3.9-0.4,5.3-1.2s2.6-2,3.4-3.4c0.8-1.4,1.4-3,1.8-4.8c0.4-1.8,0.6-3.6,0.6-5.4V82.6h8.8v23.2
				c0,3.1-0.4,6-1.1,8.8c-0.7,2.7-1.9,5.1-3.5,7.2c-1.6,2.1-3.7,3.7-6.2,4.9C840.5,127.7,837.5,128.3,834,128.3z"/>
			<path class="st0" d="M899.8,128V98.2l-11.6,22.2h-4.9l-11.6-22.2V128h-8.8V82.6h9.5l13.4,25.9l13.6-25.9h9.4V128H899.8z"/>
		</g>
		<g class="st2">
			<path class="st0" d="M578.3,144.9V159h-1.2v-16.3h1l11.4,14.4v-14.4h1.2V159h-1.1L578.3,144.9z"/>
			<path class="st0" d="M594.9,155.6c0-0.7,0.2-1.3,0.6-1.9c0.4-0.5,1-0.9,1.8-1.2c0.8-0.3,1.6-0.4,2.6-0.4c0.6,0,1.2,0.1,1.9,0.2
				c0.7,0.1,1.2,0.3,1.8,0.4v-1.1c0-1.1-0.3-2-1-2.6c-0.6-0.7-1.5-1-2.6-1c-0.6,0-1.2,0.1-1.9,0.4s-1.3,0.6-2,1.1l-0.5-0.8
				c0.8-0.5,1.5-0.9,2.3-1.2c0.7-0.3,1.5-0.4,2.2-0.4c1.4,0,2.6,0.4,3.4,1.3c0.8,0.8,1.2,2,1.2,3.4v5.9c0,0.2,0,0.3,0.1,0.4
				c0.1,0.1,0.2,0.1,0.4,0.2v0.9c-0.1,0-0.3,0-0.3,0c-0.1,0-0.2,0-0.2,0c-0.3,0-0.5-0.2-0.7-0.4c-0.2-0.2-0.2-0.4-0.3-0.7V157
				c-0.6,0.7-1.3,1.2-2.1,1.6c-0.9,0.4-1.8,0.6-2.7,0.6c-0.8,0-1.4-0.2-2-0.5c-0.6-0.3-1.1-0.8-1.4-1.3
				C595,156.9,594.9,156.3,594.9,155.6z M603.1,156.5c0.2-0.2,0.3-0.4,0.3-0.6c0.1-0.2,0.1-0.4,0.1-0.5v-2c-0.6-0.2-1.1-0.4-1.7-0.5
				c-0.6-0.1-1.2-0.2-1.8-0.2c-1.2,0-2.2,0.2-2.9,0.7c-0.7,0.5-1.1,1.1-1.1,1.9c0,0.5,0.1,1,0.4,1.4c0.3,0.4,0.6,0.8,1.1,1
				c0.5,0.3,1,0.4,1.6,0.4c0.9,0,1.7-0.2,2.4-0.5C602.2,157.5,602.7,157.1,603.1,156.5z"/>
			<path class="st0" d="M609.5,154v-6.9h1.1v6.7c0,1.5,0.2,2.6,0.7,3.3c0.5,0.7,1.3,1.1,2.3,1.1c0.7,0,1.3-0.1,1.9-0.4
				c0.6-0.3,1.2-0.7,1.6-1.3c0.5-0.5,0.8-1.2,1.1-1.9v-7.5h1.2v10.4c0,0.2,0,0.3,0.1,0.4c0.1,0.1,0.2,0.1,0.4,0.2v0.9
				c-0.2,0-0.3,0-0.4,0c-0.1,0-0.2,0-0.2,0c-0.3,0-0.5-0.1-0.6-0.3c-0.2-0.2-0.3-0.4-0.3-0.7l0-1.8c-0.5,0.9-1.2,1.7-2.2,2.2
				c-0.9,0.5-1.9,0.8-3,0.8c-1.3,0-2.2-0.4-2.9-1.3S609.5,155.7,609.5,154z"/>
			<path class="st0" d="M633.2,159l-4.7-6.4l-2.8,2.6v3.8h-1.1v-16.8h1.1v11.7l7.3-6.9h1.3l-5,4.9l5.2,7.1H633.2z"/>
			<path class="st0" d="M642.3,159.2c-0.8,0-1.6-0.2-2.3-0.5s-1.3-0.8-1.9-1.3c-0.5-0.6-0.9-1.2-1.2-2c-0.3-0.7-0.4-1.5-0.4-2.4
				c0-0.8,0.1-1.6,0.4-2.4c0.3-0.7,0.7-1.4,1.2-2s1.2-1,1.9-1.4c0.7-0.3,1.5-0.5,2.3-0.5s1.6,0.2,2.3,0.5c0.7,0.3,1.3,0.8,1.9,1.4
				c0.5,0.6,0.9,1.2,1.2,2c0.3,0.7,0.4,1.5,0.4,2.4c0,0.8-0.1,1.6-0.4,2.4c-0.3,0.7-0.7,1.4-1.2,2c-0.5,0.6-1.1,1-1.9,1.3
				S643.1,159.2,642.3,159.2z M637.6,153.1c0,0.9,0.2,1.8,0.6,2.6c0.4,0.8,1,1.4,1.7,1.8c0.7,0.5,1.5,0.7,2.3,0.7s1.6-0.2,2.4-0.7
				s1.3-1.1,1.7-1.9s0.6-1.6,0.6-2.6c0-0.9-0.2-1.8-0.6-2.6s-1-1.4-1.7-1.9s-1.5-0.7-2.3-0.7c-0.9,0-1.6,0.2-2.3,0.7
				c-0.7,0.5-1.3,1.1-1.7,1.9C637.8,151.3,637.6,152.2,637.6,153.1z"/>
			<path class="st0" d="M667,147.1h1.2L663,159h-1l-2.6-6.2l-2.6,6.2h-1l-5.2-11.9h1.1l4.6,10.7l2.5-5.8l-2-4.8h1l1.6,3.9l1.6-3.9
				h1.1l-2,4.8l2.5,5.8L667,147.1z"/>
			<path class="st0" d="M672.6,163c0.2,0,0.5,0,0.7,0s0.3,0,0.4-0.1c0.1,0,0.3-0.2,0.4-0.4c0.1-0.2,0.3-0.6,0.6-1.1s0.6-1.4,1-2.5
				l-5.3-11.9h1.2l4.7,10.7l4.4-10.7h1.2l-6.6,15.7c-0.1,0.2-0.2,0.5-0.4,0.7c-0.2,0.2-0.4,0.3-0.6,0.5s-0.5,0.2-0.8,0.2
				c-0.1,0-0.3,0-0.4,0c-0.2,0-0.3,0-0.5,0V163z"/>
			<path class="st0" d="M698.2,159.2c-1,0-1.9-0.3-2.7-0.8c-0.8-0.5-1.5-1.2-1.9-2v7.5h-1.1v-16.8h1.1v2.4c0.5-0.8,1.1-1.4,2-1.9
				c0.8-0.5,1.7-0.7,2.6-0.7c0.8,0,1.6,0.2,2.3,0.5s1.3,0.8,1.8,1.4c0.5,0.6,0.9,1.2,1.2,2c0.3,0.7,0.4,1.5,0.4,2.3
				c0,1.1-0.2,2.1-0.7,3.1c-0.5,0.9-1.1,1.7-1.9,2.3C700.2,158.9,699.3,159.2,698.2,159.2z M697.9,158.2c0.7,0,1.3-0.1,1.9-0.4
				s1-0.7,1.4-1.2c0.4-0.5,0.7-1,0.9-1.6c0.2-0.6,0.3-1.2,0.3-1.9c0-0.7-0.1-1.3-0.4-2s-0.6-1.2-1-1.6c-0.4-0.5-0.9-0.9-1.5-1.1
				c-0.6-0.3-1.2-0.4-1.9-0.4c-0.4,0-0.9,0.1-1.3,0.3s-0.9,0.4-1.3,0.7c-0.4,0.3-0.8,0.7-1,1c-0.3,0.4-0.4,0.8-0.5,1.2v3.9
				c0.3,0.6,0.6,1.1,1.1,1.6c0.4,0.5,0.9,0.9,1.5,1.1C696.7,158.1,697.3,158.2,697.9,158.2z"/>
			<path class="st0" d="M712.8,159.2c-0.8,0-1.6-0.2-2.3-0.5s-1.3-0.8-1.9-1.3c-0.5-0.6-0.9-1.2-1.2-2c-0.3-0.7-0.4-1.5-0.4-2.4
				c0-0.8,0.1-1.6,0.4-2.4c0.3-0.7,0.7-1.4,1.2-2s1.2-1,1.9-1.4c0.7-0.3,1.5-0.5,2.3-0.5s1.6,0.2,2.3,0.5c0.7,0.3,1.3,0.8,1.9,1.4
				c0.5,0.6,0.9,1.2,1.2,2c0.3,0.7,0.4,1.5,0.4,2.4c0,0.8-0.1,1.6-0.4,2.4c-0.3,0.7-0.7,1.4-1.2,2c-0.5,0.6-1.1,1-1.9,1.3
				S713.7,159.2,712.8,159.2z M708.1,153.1c0,0.9,0.2,1.8,0.6,2.6c0.4,0.8,1,1.4,1.7,1.8c0.7,0.5,1.5,0.7,2.3,0.7s1.6-0.2,2.4-0.7
				s1.3-1.1,1.7-1.9s0.6-1.6,0.6-2.6c0-0.9-0.2-1.8-0.6-2.6s-1-1.4-1.7-1.9s-1.5-0.7-2.3-0.7c-0.9,0-1.6,0.2-2.3,0.7
				c-0.7,0.5-1.3,1.1-1.7,1.9C708.4,151.3,708.1,152.2,708.1,153.1z"/>
			<path class="st0" d="M728.5,148.1c-1.1,0-2,0.3-2.8,1c-0.8,0.6-1.4,1.4-1.7,2.5v7.5h-1.1v-11.9h1.1v2.9c0.4-0.8,1-1.5,1.7-2.1
				c0.7-0.5,1.4-0.8,2.2-0.9c0.2,0,0.3,0,0.4,0c0.1,0,0.2,0,0.3,0V148.1z"/>
			<path class="st0" d="M737.4,158.5c-0.1,0-0.2,0.1-0.5,0.2s-0.5,0.2-0.9,0.3s-0.7,0.2-1.2,0.2c-0.4,0-0.8-0.1-1.2-0.2
				c-0.4-0.2-0.6-0.4-0.9-0.7c-0.2-0.3-0.3-0.7-0.3-1.2V148h-1.7v-0.9h1.7V143h1.1v4.1h2.8v0.9h-2.8v8.8c0,0.4,0.2,0.8,0.5,1
				s0.6,0.3,1,0.3c0.5,0,0.9-0.1,1.2-0.2c0.4-0.2,0.6-0.3,0.6-0.3L737.4,158.5z"/>
			<path class="st0" d="M739.9,155.6c0-0.7,0.2-1.3,0.6-1.9c0.4-0.5,1-0.9,1.8-1.2c0.8-0.3,1.6-0.4,2.6-0.4c0.6,0,1.2,0.1,1.9,0.2
				c0.7,0.1,1.3,0.3,1.8,0.4v-1.1c0-1.1-0.3-2-1-2.6c-0.6-0.7-1.5-1-2.6-1c-0.6,0-1.2,0.1-1.9,0.4s-1.3,0.6-2,1.1l-0.5-0.8
				c0.8-0.5,1.5-0.9,2.3-1.2c0.7-0.3,1.5-0.4,2.2-0.4c1.4,0,2.6,0.4,3.4,1.3s1.2,2,1.2,3.4v5.9c0,0.2,0,0.3,0.1,0.4
				c0.1,0.1,0.2,0.1,0.4,0.2v0.9c-0.1,0-0.3,0-0.3,0s-0.2,0-0.2,0c-0.3,0-0.5-0.2-0.7-0.4c-0.2-0.2-0.3-0.4-0.3-0.7V157
				c-0.6,0.7-1.3,1.2-2.1,1.6c-0.9,0.4-1.8,0.6-2.7,0.6c-0.8,0-1.4-0.2-2-0.5c-0.6-0.3-1.1-0.8-1.4-1.3
				C740,156.9,739.9,156.3,739.9,155.6z M748.1,156.5c0.2-0.2,0.3-0.4,0.3-0.6c0.1-0.2,0.1-0.4,0.1-0.5v-2c-0.6-0.2-1.1-0.4-1.7-0.5
				c-0.6-0.1-1.2-0.2-1.8-0.2c-1.2,0-2.2,0.2-2.9,0.7c-0.7,0.5-1.1,1.1-1.1,1.9c0,0.5,0.1,1,0.4,1.4c0.3,0.4,0.6,0.8,1.1,1
				s1,0.4,1.6,0.4c0.9,0,1.7-0.2,2.4-0.5C747.2,157.5,747.7,157.1,748.1,156.5z"/>
			<path class="st0" d="M754.7,142.2h1.2v14.5c0,0.6,0.1,0.9,0.3,1.1c0.2,0.2,0.5,0.3,0.9,0.3c0.2,0,0.5,0,0.8-0.1
				c0.3,0,0.5-0.1,0.7-0.2l0.2,0.9c-0.3,0.1-0.6,0.2-1,0.3c-0.4,0.1-0.7,0.1-1,0.1c-0.6,0-1.2-0.2-1.6-0.6c-0.4-0.4-0.6-0.9-0.6-1.6
				V142.2z"/>
			<path class="st0" d="M773.6,159.2c-0.8,0-1.6-0.2-2.3-0.5s-1.3-0.8-1.9-1.3c-0.5-0.6-0.9-1.2-1.2-2c-0.3-0.7-0.4-1.5-0.4-2.4
				c0-0.8,0.1-1.6,0.4-2.4s0.7-1.4,1.2-2c0.5-0.6,1.2-1,1.9-1.4c0.7-0.3,1.5-0.5,2.3-0.5s1.6,0.2,2.3,0.5c0.7,0.3,1.3,0.8,1.9,1.4
				c0.5,0.6,1,1.2,1.2,2s0.4,1.5,0.4,2.4c0,0.8-0.1,1.6-0.4,2.4c-0.3,0.7-0.7,1.4-1.2,2c-0.5,0.6-1.1,1-1.9,1.3
				S774.4,159.2,773.6,159.2z M768.9,153.1c0,0.9,0.2,1.8,0.6,2.6c0.4,0.8,1,1.4,1.7,1.8c0.7,0.5,1.5,0.7,2.3,0.7
				c0.9,0,1.6-0.2,2.4-0.7s1.3-1.1,1.7-1.9c0.4-0.8,0.6-1.6,0.6-2.6c0-0.9-0.2-1.8-0.6-2.6c-0.4-0.8-1-1.4-1.7-1.9s-1.5-0.7-2.3-0.7
				c-0.9,0-1.6,0.2-2.3,0.7c-0.7,0.5-1.3,1.1-1.7,1.9C769.1,151.3,768.9,152.2,768.9,153.1z"/>
			<path class="st0" d="M789.8,158.2l8.4-10.2H790v-0.9h9.6v0.8l-8.4,10.2h8.3v0.9h-9.7V158.2z"/>
			<path class="st0" d="M802.5,153.1c0-1.1,0.2-2.1,0.7-3.1c0.5-0.9,1.1-1.7,2-2.3c0.8-0.6,1.8-0.9,2.8-0.9c1,0,2,0.3,2.8,0.8
				s1.4,1.2,1.9,2v-7.5h1.2v15.3c0,0.2,0,0.3,0.1,0.4c0.1,0.1,0.2,0.1,0.4,0.2v0.9c-0.2,0-0.4,0-0.6,0c-0.3,0-0.5-0.2-0.7-0.4
				s-0.3-0.4-0.3-0.7v-1.3c-0.5,0.8-1.1,1.4-2,1.9c-0.8,0.5-1.7,0.7-2.6,0.7c-0.8,0-1.6-0.2-2.3-0.5c-0.7-0.3-1.3-0.8-1.8-1.4
				c-0.5-0.6-0.9-1.2-1.2-2C802.6,154.6,802.5,153.9,802.5,153.1z M812.6,155v-3.9c-0.2-0.6-0.6-1.1-1-1.6s-1-0.9-1.6-1.1
				s-1.2-0.4-1.8-0.4c-0.7,0-1.3,0.1-1.9,0.4s-1,0.7-1.4,1.2c-0.4,0.5-0.7,1-0.9,1.7s-0.3,1.3-0.3,1.9c0,0.7,0.1,1.3,0.4,1.9
				c0.2,0.6,0.6,1.2,1,1.6c0.4,0.5,0.9,0.9,1.5,1.1c0.6,0.3,1.2,0.4,1.9,0.4c0.4,0,0.9-0.1,1.3-0.3s0.9-0.4,1.3-0.7
				c0.4-0.3,0.8-0.6,1.1-1C812.4,155.8,812.6,155.4,812.6,155z"/>
			<path class="st0" d="M824.5,148.1c-1.1,0-2,0.3-2.8,1c-0.8,0.6-1.4,1.4-1.7,2.5v7.5h-1.1v-11.9h1.1v2.9c0.4-0.8,1-1.5,1.7-2.1
				c0.7-0.5,1.4-0.8,2.2-0.9c0.2,0,0.3,0,0.4,0s0.2,0,0.3,0V148.1z"/>
			<path class="st0" d="M832.6,159.2c-0.8,0-1.6-0.2-2.3-0.5s-1.3-0.8-1.9-1.3c-0.5-0.6-0.9-1.2-1.2-2c-0.3-0.7-0.4-1.5-0.4-2.4
				c0-0.8,0.1-1.6,0.4-2.4s0.7-1.4,1.2-2s1.2-1,1.9-1.4c0.7-0.3,1.5-0.5,2.3-0.5s1.6,0.2,2.3,0.5c0.7,0.3,1.3,0.8,1.9,1.4
				c0.5,0.6,1,1.2,1.2,2c0.3,0.7,0.4,1.5,0.4,2.4c0,0.8-0.1,1.6-0.4,2.4c-0.3,0.7-0.7,1.4-1.2,2c-0.5,0.6-1.2,1-1.9,1.3
				S833.5,159.2,832.6,159.2z M828,153.1c0,0.9,0.2,1.8,0.6,2.6s1,1.4,1.7,1.8c0.7,0.5,1.5,0.7,2.3,0.7c0.9,0,1.6-0.2,2.4-0.7
				s1.3-1.1,1.7-1.9s0.6-1.6,0.6-2.6c0-0.9-0.2-1.8-0.6-2.6s-1-1.4-1.7-1.9s-1.5-0.7-2.3-0.7c-0.9,0-1.6,0.2-2.3,0.7
				c-0.7,0.5-1.3,1.1-1.7,1.9C828.2,151.3,828,152.2,828,153.1z"/>
			<path class="st0" d="M857.4,147.1h1.1l-5.2,11.9h-1l-2.6-6.2L847,159h-1l-5.2-11.9h1.1l4.6,10.7l2.5-5.8l-2-4.8h1l1.6,3.9
				l1.6-3.9h1.1l-2,4.8l2.5,5.8L857.4,147.1z"/>
			<path class="st0" d="M862.2,144.3v-2.1h1.2v2.1H862.2z M862.2,159v-12h1.2v12H862.2z"/>
			<path class="st0" d="M868.2,154v-6.9h1.2v6.7c0,1.5,0.2,2.6,0.7,3.3c0.5,0.7,1.3,1.1,2.3,1.1c0.7,0,1.3-0.1,1.9-0.4
				c0.6-0.3,1.2-0.7,1.6-1.3c0.5-0.5,0.8-1.2,1.1-1.9v-7.5h1.2v10.4c0,0.2,0,0.3,0.1,0.4c0.1,0.1,0.2,0.1,0.4,0.2v0.9
				c-0.2,0-0.3,0-0.4,0c-0.1,0-0.2,0-0.2,0c-0.3,0-0.5-0.1-0.6-0.3s-0.3-0.4-0.3-0.7l0-1.8c-0.5,0.9-1.2,1.7-2.2,2.2
				c-0.9,0.5-1.9,0.8-3,0.8c-1.3,0-2.2-0.4-2.9-1.3S868.2,155.7,868.2,154z"/>
		</g>
		<line id="Line_9" class="st3" x1="535.5" y1="138.5" x2="926.5" y2="138.5"/>
	</g>
</g>
</svg>
